<?xml version="1.0" encoding="utf-8"?>
<!-- Generator: Adobe Illustrator 16.0.0, SVG Export Plug-In . SVG Version: 6.00 Build 0)  -->
<!DOCTYPE svg PUBLIC "-//W3C//DTD SVG 1.1//EN" "http://www.w3.org/Graphics/SVG/1.1/DTD/svg11.dtd">
<svg version="1.1" id="Layer_1" xmlns="http://www.w3.org/2000/svg" xmlns:xlink="http://www.w3.org/1999/xlink" x="0px" y="0px"
	 width="20px" height="20px" viewBox="0 0 20 20" enable-background="new 0 0 20 20" xml:space="preserve">
<g id="Search">
</g>
<g id="Photography">
</g>
<g id="Web_Design">
	<g id="Web_Design_1_">
		<path fill="#111111" d="M18.335,1.249H1.666C0.748,1.249,0,1.997,0,2.915v10.864c0,0.919,0.748,1.664,1.666,1.664h5.371
			l-1.02,2.248c-0.104,0.232-0.084,0.502,0.053,0.718c0.139,0.215,0.376,0.342,0.631,0.342h6.6l0,0c0.416,0,0.75-0.336,0.75-0.748
			c0-0.125-0.029-0.244-0.083-0.349l-1.003-2.211h5.37c0.919,0,1.666-0.745,1.666-1.664V2.915C20,1.997,19.253,1.249,18.335,1.249z
			 M18.499,13.779c0,0.091-0.074,0.164-0.164,0.164H1.666c-0.092,0-0.167-0.073-0.167-0.164V2.915c0-0.092,0.075-0.166,0.167-0.166
			h16.669c0.09,0,0.164,0.074,0.164,0.166V13.779L18.499,13.779z"/>
		<path fill="#111111" d="M12.311,4.822c-0.053-0.054-0.146-0.046-0.207,0.017l-0.814,0.814c-0.062,0.062-0.07,0.156-0.018,0.208
			l1.153,1.155c0.027,0.025,0.063,0.037,0.101,0.035c0.039-0.004,0.078-0.021,0.108-0.053l0.812-0.812
			c0.064-0.063,0.072-0.156,0.02-0.21L12.311,4.822z"/>
		<path fill="#111111" d="M7.317,9.88C7.283,9.845,7.229,9.835,7.176,9.854C7.125,9.87,7.083,9.915,7.065,9.968l-0.558,1.646
			c-0.018,0.051-0.007,0.104,0.028,0.139c0.024,0.024,0.062,0.037,0.1,0.035c0.012-0.004,0.025-0.004,0.038-0.011l1.647-0.555
			c0.051-0.018,0.095-0.061,0.112-0.113c0.017-0.051,0.008-0.104-0.026-0.141L7.317,9.88z"/>
		<path fill="#111111" d="M11.477,9.112c0.071-0.033,0.125-0.098,0.143-0.176s-0.002-0.16-0.055-0.221
			c-0.096-0.115-0.195-0.229-0.299-0.346l0.903-0.904c0.03-0.031,0.049-0.068,0.052-0.107c0.004-0.041-0.01-0.077-0.035-0.103
			l-1.153-1.154c-0.054-0.052-0.147-0.046-0.209,0.017L9.94,7.001C9.35,6.44,8.756,5.939,8.233,5.563
			C7.865,5.299,7.19,4.854,6.814,4.847c-0.068,0-0.135,0.027-0.183,0.075c-0.05,0.049-0.077,0.114-0.076,0.183
			C6.558,5.36,6.781,5.821,7.188,6.403c0.387,0.555,0.916,1.191,1.521,1.83l-1.15,1.148C7.497,9.443,7.489,9.537,7.542,9.59
			l1.154,1.154c0.027,0.027,0.062,0.039,0.101,0.035s0.076-0.021,0.109-0.053l1.171-1.172c0.104,0.09,0.204,0.182,0.306,0.264
			c0.046,0.039,0.104,0.061,0.164,0.061c0.014,0,0.026-0.002,0.04-0.004c0.073-0.012,0.14-0.055,0.179-0.119
			c0.068-0.111,0.156-0.223,0.266-0.33C11.165,9.292,11.312,9.185,11.477,9.112z"/>
		<path fill="#111111" d="M12.115,9.327c-0.297,0-0.583,0.125-0.82,0.365c-0.287,0.285-0.413,0.588-0.361,0.871
			c0.049,0.279,0.271,0.531,0.609,0.688c0.292,0.135,0.559,0.179,0.792,0.215c0.245,0.039,0.479,0.076,0.687,0.218
			c0.043,0.028,0.093,0.043,0.144,0.043c0.034,0,0.069-0.006,0.104-0.021c0.08-0.033,0.137-0.109,0.147-0.199
			c0.091-0.662-0.038-1.256-0.356-1.674C12.812,9.511,12.468,9.327,12.115,9.327z"/>
	</g>
</g>
</svg>
