<?xml version="1.0" encoding="utf-8"?>
<!-- Generator: Adobe Illustrator 18.1.1, SVG Export Plug-In . SVG Version: 6.00 Build 0)  -->
<svg version="1.1" id="Layer_1" xmlns="http://www.w3.org/2000/svg" xmlns:xlink="http://www.w3.org/1999/xlink" x="0px" y="0px"
	 width="10px" height="10px" viewBox="-5 20 10 10" enable-background="new -5 20 10 10" xml:space="preserve">
<path id="Top__x28_White_x29__1_" fill="#555555" d="M-4.8,29.5l0.3,0.3c0.3,0.3,0.8,0.3,1.1,0l1.9-1.9c0.7,0.4,1.5,0.7,2.3,0.7
	c2.4,0,4.3-1.9,4.3-4.3S3.1,20,0.8,20c-2.4,0-4.4,1.9-4.4,4.3c0,0.9,0.3,1.6,0.7,2.3l-1.9,1.9C-5.1,28.8-5.1,29.3-4.8,29.5z
	 M0.7,21.2c1.7,0,3.2,1.4,3.2,3.2c0,1.7-1.4,3.2-3.2,3.2s-3.2-1.4-3.2-3.2C-2.4,22.6-1,21.2,0.7,21.2z"/>
</svg>
