<?xml version="1.0" encoding="utf-8"?>
<!-- Generator: Adobe Illustrator 16.0.0, SVG Export Plug-In . SVG Version: 6.00 Build 0)  -->
<!DOCTYPE svg PUBLIC "-//W3C//DTD SVG 1.1//EN" "http://www.w3.org/Graphics/SVG/1.1/DTD/svg11.dtd">
<svg version="1.1" xmlns="http://www.w3.org/2000/svg" xmlns:xlink="http://www.w3.org/1999/xlink" x="0px" y="0px" width="20px"
	 height="20px" viewBox="0 0 20 20" enable-background="new 0 0 20 20" xml:space="preserve">
<g id="Search">
</g>
<g id="Photography">
	<path id="Photography_1_" fill="#FFFFFF" d="M14.955,11.688c-0.243,1.58-1.533,2.87-3.113,3.111
		c-2.532,0.389-4.686-1.763-4.296-4.297c0.242-1.58,1.532-2.87,3.112-3.111C13.189,7.002,15.341,9.152,14.955,11.688z M20,5.532
		v11.124c0,0.839-0.682,1.521-1.521,1.521H1.521C0.682,18.177,0,17.496,0,16.656V5.532c0-0.839,0.682-1.521,1.521-1.521h0.146V3.673
		c0-0.273,0.223-0.494,0.495-0.494h2.344C4.779,3.179,5,3.399,5,3.673v0.339h1.291l1.02-2.11c0.116-0.238,0.358-0.39,0.622-0.39
		h6.635c0.264,0,0.507,0.151,0.621,0.39l1.02,2.11h2.271C19.318,4.012,20,4.693,20,5.532z M4.376,5.678
		c0-0.574-0.468-1.042-1.042-1.042c-0.575,0-1.042,0.468-1.042,1.042c0,0.575,0.467,1.042,1.042,1.042
		C3.908,6.72,4.376,6.253,4.376,5.678z M10.012,5.815C8.021,6.258,6.413,7.863,5.973,9.854c-0.878,3.954,2.564,7.395,6.516,6.519
		c1.992-0.442,3.599-2.048,4.04-4.039C17.404,8.383,13.963,4.941,10.012,5.815z"/>
</g>
<g id="Web_Design">
</g>
</svg>
