<?xml version="1.0" encoding="utf-8"?>
<!-- Generator: Adobe Illustrator 16.0.0, SVG Export Plug-In . SVG Version: 6.00 Build 0)  -->
<!DOCTYPE svg PUBLIC "-//W3C//DTD SVG 1.1//EN" "http://www.w3.org/Graphics/SVG/1.1/DTD/svg11.dtd">
<svg version="1.1" id="Layer_1" xmlns="http://www.w3.org/2000/svg" xmlns:xlink="http://www.w3.org/1999/xlink" x="0px" y="0px"
	 width="20px" height="20px" viewBox="0 0 20 20" enable-background="new 0 0 20 20" xml:space="preserve">
<path id="Top__x28_White_x29__2_" fill="#111111" d="M0.443,18.976l0.586,0.583c0.588,0.588,1.541,0.588,2.127,0l3.683-3.681
	c1.321,0.827,2.883,1.306,4.562,1.306c4.75,0,8.599-3.845,8.599-8.59S16.151,0,11.401,0C6.652,0,2.799,3.849,2.799,8.594
	c0,1.683,0.482,3.254,1.321,4.579L0.443,16.85C-0.147,17.435-0.147,18.387,0.443,18.976z M11.399,2.377
	c3.437,0,6.22,2.783,6.22,6.216c0,3.432-2.782,6.214-6.22,6.214c-3.435,0-6.223-2.782-6.223-6.214
	C5.177,5.162,7.964,2.377,11.399,2.377z"/>
</svg>
