<?xml version="1.0" encoding="utf-8"?>
<!-- Generator: Adobe Illustrator 18.1.1, SVG Export Plug-In . SVG Version: 6.00 Build 0)  -->
<svg version="1.1" id="Layer_1" xmlns="http://www.w3.org/2000/svg" xmlns:xlink="http://www.w3.org/1999/xlink" x="0px" y="0px"
	 viewBox="-290 392 10 10" enable-background="new -290 392 10 10" xml:space="preserve">
<path id="Top__x28_White_x29__2_" fill="#111111" d="M-289.8,401.5l0.3,0.3c0.3,0.3,0.8,0.3,1.1,0l1.8-1.8c0.7,0.4,1.4,0.7,2.3,0.7
	c2.4,0,4.3-1.9,4.3-4.3c0-2.4-1.9-4.3-4.3-4.3c-2.4,0-4.3,1.9-4.3,4.3c0,0.8,0.2,1.6,0.7,2.3l-1.8,1.8
	C-290.1,400.7-290.1,401.2-289.8,401.5z M-284.3,393.2c1.7,0,3.1,1.4,3.1,3.1c0,1.7-1.4,3.1-3.1,3.1c-1.7,0-3.1-1.4-3.1-3.1
	C-287.4,394.6-286,393.2-284.3,393.2z"/>
</svg>
