<svg xmlns="http://www.w3.org/2000/svg" width="24" height="23.41" viewBox="0 0 24 23.41"><title>global-link-github</title><path d="M12 0a12 12 0 0 0-3.79 23.39c.6.11.82-.26.82-.58v-2c-3.34.73-4-1.61-4-1.61a3.18 3.18 0 0 0-1.39-1.8c-1.09-.74.08-.73.08-.73a2.52 2.52 0 0 1 1.84 1.24 2.55 2.55 0 0 0 3.49 1 2.56 2.56 0 0 1 .76-1.6C7.15 17 4.34 16 4.34 11.37a4.64 4.64 0 0 1 1.24-3.22A4.32 4.32 0 0 1 5.7 5s1-.32 3.3 1.23a11.37 11.37 0 0 1 6 0C17.3 4.65 18.3 5 18.3 5a4.31 4.31 0 0 1 .12 3.18 4.63 4.63 0 0 1 1.23 3.22c0 4.61-2.81 5.62-5.48 5.92a2.86 2.86 0 0 1 .83 2.2v3.29c0 .39.22.69.83.58A12 12 0 0 0 12 0z" fill="#212121" fill-rule="evenodd"/></svg>