<svg xmlns="http://www.w3.org/2000/svg" width="24" height="24" viewBox="0 0 24 24"><title>global-link-codepen</title><path fill="#212121" d="M5.86 10.93v2.14L7.45 12l-1.59-1.07zm5.5-1.55V6.41L6.37 9.74l2.23 1.49 2.76-1.85zm6.27.36l-4.99-3.33v2.97l2.76 1.85 2.23-1.49zM6.37 14.26l4.99 3.33v-2.97L8.6 12.77l-2.23 1.49zm6.27.36v2.97l4.99-3.33-2.23-1.49-2.76 1.85zM12 10.49L9.74 12 12 13.51 14.26 12 12 10.49z"/><path d="M12 0a12 12 0 1 0 12 12A12 12 0 0 0 12 0zm7.42 14.26a.63.63 0 0 1 0 .08v.11l-6.78 4.52a.64.64 0 0 1-.71 0l-7.07-4.18v-.11a.63.63 0 0 1 0-.08V9.74a.62.62 0 0 1 0-.08v-.12l6.78-4.52a.64.64 0 0 1 .71 0l6.78 4.52v.11a.62.62 0 0 1 0 .08z" fill="#212121"/><path fill="#212121" d="M18.14 13.07v-2.14L16.55 12l1.59 1.07z"/></svg>