<svg xmlns="http://www.w3.org/2000/svg" width="80" height="16" viewBox="0 0 80 16"><title>global-header-hamburger</title><path d="M79.46,10.16,74.62,15l4.84,4.84a1.84,1.84,0,1,1-2.6,2.61L72,17.6l-4.84,4.84a1.84,1.84,0,0,1-2.61-2.61L69.41,15l-4.84-4.84a1.84,1.84,0,0,1,2.6-2.61L72,12.39l4.84-4.84a1.84,1.84,0,0,1,2.61,2.61Z" transform="translate(0 -7)" style="fill:#212121"/><rect width="40" height="2" style="fill:#212121"/><rect x="5" y="7" width="35" height="2" style="fill:#212121"/><rect x="10" y="14" width="30" height="2" style="fill:#212121"/></svg>