<svg xmlns="http://www.w3.org/2000/svg" width="67.99" height="16" viewBox="0 0 67.99 16"><title>global-header-hamburger</title><path d="M67.44,10.16,62.61,15l4.84,4.84a1.84,1.84,0,1,1-2.6,2.61L60,17.6l-4.84,4.84a1.84,1.84,0,0,1-2.61-2.61L57.39,15l-4.84-4.84a1.84,1.84,0,0,1,2.6-2.61L60,12.39l4.84-4.84a1.84,1.84,0,0,1,2.61,2.61Z" transform="translate(0 -7)" style="fill:#222"/><rect width="40" height="2" style="fill:#222"/><rect x="5" y="7" width="35" height="2" style="fill:#222"/><rect x="10" y="14" width="30" height="2" style="fill:#222"/></svg>