<?xml version="1.0" encoding="utf-8"?>
<!-- Generator: Adobe Illustrator 18.1.1, SVG Export Plug-In . SVG Version: 6.00 Build 0)  -->
<svg version="1.1" xmlns="http://www.w3.org/2000/svg" xmlns:xlink="http://www.w3.org/1999/xlink" x="0px" y="0px" width="995px"
	 height="762px" viewBox="0 0 995 762" enable-background="new 0 0 995 762" xml:space="preserve">
<g id="iPhone">
	<g>
		<g>
			<path fill="#FFFFFF" d="M804,474.5c-18.5,0-33.5-15.1-33.5-33.6V34.1c0-18.5,15-33.6,33.5-33.6H961c18.5,0,33.5,15.1,33.5,33.6
				v406.8c0,18.5-15,33.6-33.5,33.6H804z"/>
			<path d="M961,1c18.2,0,33,14.9,33,33.1v406.8c0,18.3-14.8,33.1-33,33.1H804c-18.2,0-33-14.9-33-33.1V34.1C771,15.9,785.8,1,804,1
				H961 M961,0H804c-18.8,0-34,15.3-34,34.1v406.8c0,18.8,15.2,34.1,34,34.1H961c18.8,0,34-15.3,34-34.1V34.1
				C995,15.3,979.8,0,961,0L961,0z"/>
		</g>
		<g>
			<path d="M785.7,403.5c-1.5,0-2.7-1.2-2.7-2.7V67.1c0-1.5,1.2-2.7,2.7-2.7h193.5c1.5,0,2.7,1.2,2.7,2.7v333.7
				c0,1.5-1.2,2.7-2.7,2.7H785.7z"/>
			<g>
				<path fill="#414142" d="M979.3,65c1.2,0,2.2,1,2.2,2.2v333.7c0,1.2-1,2.2-2.2,2.2H785.7c-1.2,0-2.2-1-2.2-2.2V67.1
					c0-1.2,1-2.2,2.2-2.2H979.3 M979.3,64H785.7c-1.8,0-3.2,1.4-3.2,3.2v333.7c0,1.7,1.5,3.2,3.2,3.2h193.5c1.8,0,3.2-1.4,3.2-3.2
					V67.1C982.5,65.4,981,64,979.3,64L979.3,64z"/>
			</g>
		</g>
		<path d="M900.6,39.5c0,1.3-1.4,2.4-3.2,2.4h-29.8c-1.8,0-3.2-1.1-3.2-2.4c0-1.3,1.4-2.4,3.2-2.4h29.8
			C899.1,37.1,900.6,38.1,900.6,39.5z"/>
		<ellipse cx="852.6" cy="39.5" rx="2.9" ry="2.9"/>
		<ellipse cx="882.5" cy="21.9" rx="4.3" ry="4.3"/>
		<g>
			<path d="M882.5,421.1c10.2,0,18.4,8.3,18.4,18.5s-8.3,18.5-18.4,18.5c-10.2,0-18.4-8.3-18.4-18.5S872.3,421.1,882.5,421.1
				 M882.5,420.1c-10.7,0-19.4,8.7-19.4,19.5c0,10.7,8.7,19.5,19.4,19.5c10.7,0,19.4-8.7,19.4-19.5
				C901.9,428.8,893.2,420.1,882.5,420.1L882.5,420.1z"/>
		</g>
	</g>
</g>
<g id="iPad">
	<g>
		<path fill="#FFFFFF" d="M21.4,761.5c-11.5,0-20.9-9.4-20.9-20.9V473.4c0-11.5,9.4-20.9,20.9-20.9h397.2c11.5,0,20.9,9.4,20.9,20.9
			v267.2c0,11.5-9.4,20.9-20.9,20.9H21.4z"/>
		<path d="M418.6,453c11.2,0,20.4,9.2,20.4,20.4v267.2c0,11.2-9.1,20.4-20.4,20.4H21.4C10.1,761,1,751.8,1,740.6V473.4
			c0-11.2,9.1-20.4,20.4-20.4H418.6 M418.6,452H21.4C9.6,452,0,461.6,0,473.4v267.2C0,752.4,9.6,762,21.4,762h397.2
			c11.8,0,21.4-9.6,21.4-21.4V473.4C440,461.6,430.4,452,418.6,452L418.6,452z"/>
	</g>
	<g>
		<path d="M39,740.5c-0.3,0-0.5-0.2-0.5-0.5V472c0-0.3,0.2-0.5,0.5-0.5h358c0.3,0,0.5,0.2,0.5,0.5v268c0,0.3-0.2,0.5-0.5,0.5H39z"/>
		<g>
			<path fill="#414142" d="M397,472L397,472v268l-358,0l0-268H397 M397,471H39c-0.5,0-1,0.4-1,1v268c0,0.5,0.4,1,1,1h358
				c0.5,0,1-0.4,1-1V472C398,471.4,397.6,471,397,471L397,471z"/>
		</g>
	</g>
	<circle cx="20.3" cy="607" r="2.8"/>
	<g>
		<path d="M420.5,596.1c6,0,10.9,4.9,10.9,10.9s-4.9,10.9-10.9,10.9s-10.9-4.9-10.9-10.9S414.5,596.1,420.5,596.1 M420.5,595.1
			c-6.6,0-11.9,5.3-11.9,11.9c0,6.6,5.3,11.9,11.9,11.9c6.6,0,11.9-5.3,11.9-11.9C432.3,600.4,427,595.1,420.5,595.1L420.5,595.1z"
			/>
	</g>
	<g>
		<path d="M423.2,603.3c0.6,0,1,0.5,1,1v5.4c0,0.6-0.5,1-1,1h-5.4c-0.6,0-1-0.5-1-1v-5.4c0-0.6,0.5-1,1-1H423.2 M423.2,602.3h-5.4
			c-1.1,0-2,0.9-2,2v5.4c0,1.1,0.9,2,2,2h5.4c1.1,0,2-0.9,2-2v-5.4C425.2,603.2,424.3,602.3,423.2,602.3L423.2,602.3z"/>
	</g>
</g>
<g id="MacBook_Pro">
	<g>
		<path fill="#FFFFFF" d="M38.5,429.5c-17.5,0-31.2-5.9-36.3-8.5c-1.1-0.5-1.7-1.6-1.7-2.8v-11.7h749v11.7c0,1.2-0.7,2.2-1.7,2.8
			c-5.1,2.5-18.7,8.5-36.3,8.5H38.5z"/>
		<g>
			<path fill="#010101" d="M749,407.1v11.2c0,1-0.5,1.9-1.4,2.3c-5,2.5-18.6,8.4-36.1,8.4h-673c-17.4,0-31-5.9-36.1-8.4
				c-0.9-0.4-1.4-1.3-1.4-2.3v-11.2H749 M750,406.1c-18.5,0-720.5,0-750,0v12.2c0,1.4,0.8,2.6,2,3.2c5,2.5,18.8,8.5,36.5,8.5
				c62.1,0,610.9,0,673,0c17.7,0,31.5-6,36.5-8.5c1.2-0.6,2-1.8,2-3.2V406.1L750,406.1z"/>
		</g>
	</g>
	<g>
		<path fill="#FFFFFF" d="M330.5,414.1c-4.2,0-6.3-5.6-6.9-7.5H427c-0.6,1.9-2.7,7.5-6.9,7.5H330.5z"/>
		<g>
			<path fill="#010101" d="M426.4,407.1c-0.8,2.2-2.7,6.5-6.2,6.5h-89.7c-3.5,0-5.4-4.3-6.2-6.5H426.4 M427.7,406.1
				c-59.5,0-45.3,0-104.8,0c0,0,2.1,8.5,7.6,8.5c23.1,0,66.6,0,89.7,0C425.6,414.6,427.7,406.1,427.7,406.1L427.7,406.1z"/>
		</g>
	</g>
	<g>
		<path fill="#FFFFFF" d="M76.4,406.6c-4.5,0-6.5-3-6.5-9.4V19.1c0-10.3,8.4-18.6,18.7-18.6h570.6c10.3,0,18.7,8.4,18.7,18.6v378.1
			c0,6.4-2.1,9.4-6.5,9.4H76.4z"/>
		<g>
			<path fill="#010101" d="M659.2,1c10.1,0,18.2,8.1,18.2,18.1v378.1c0,6.2-1.9,8.9-6,8.9h-595c-4.2,0-6-2.7-6-8.9V19.1
				C70.3,9.1,78.5,1,88.6,1H659.2 M659.2,0C630.7,0,117,0,88.6,0C77.9,0,69.3,8.6,69.3,19.1c0,0,0,373.1,0,378.1c0,5,1.2,9.9,7,9.9
				c22.6,0,572.4,0,595,0c5.8,0,7-5,7-9.9c0-5,0-378.1,0-378.1C678.4,8.6,669.8,0,659.2,0L659.2,0z"/>
		</g>
	</g>
	<g>
		<path d="M91.4,379.5c-0.5,0-0.9-0.4-0.9-0.9V26.4c0-0.5,0.4-0.9,0.9-0.9h567.3c0.5,0,0.9,0.4,0.9,0.9v352.3c0,0.5-0.4,0.9-0.9,0.9
			H91.4z"/>
		<g>
			<path fill="#414142" d="M658.6,26c0.2,0,0.4,0.2,0.4,0.4v352.3c0,0.2-0.2,0.4-0.4,0.4H91.4c-0.2,0-0.4-0.2-0.4-0.4V26.4
				c0-0.2,0.2-0.4,0.4-0.4H658.6 M658.6,25H91.4c-0.8,0-1.4,0.6-1.4,1.4v352.3c0,0.7,0.6,1.4,1.4,1.4h567.3c0.8,0,1.4-0.6,1.4-1.4
				V26.4C660,25.6,659.4,25,658.6,25L658.6,25z"/>
		</g>
	</g>
</g>
</svg>
