<svg xmlns="http://www.w3.org/2000/svg" width="48" height="24" viewBox="0 0 48 24"><path d="M20.4,24H16.8a1.2,1.2,0,0,1,0-2.4h3.6a1.2,1.2,0,0,0,1.2-1.2V16.8a1.2,1.2,0,1,1,2.4,0v3.6A3.6,3.6,0,0,1,20.4,24ZM7.2,24H3.6A3.6,3.6,0,0,1,0,20.4V16.8a1.2,1.2,0,1,1,2.4,0v3.6a1.2,1.2,0,0,0,1.2,1.2H7.2a1.2,1.2,0,1,1,0,2.4ZM22.8,8.4a1.2,1.2,0,0,1-1.2-1.2V3.6a1.2,1.2,0,0,0-1.2-1.2H16.8a1.2,1.2,0,0,1,0-2.4h3.6A3.6,3.6,0,0,1,24,3.6V7.2A1.2,1.2,0,0,1,22.8,8.4ZM1.2,8.4A1.2,1.2,0,0,1,0,7.2V3.6A3.6,3.6,0,0,1,3.6,0H7.2a1.2,1.2,0,1,1,0,2.4H3.6A1.2,1.2,0,0,0,2.4,3.6V7.2A1.2,1.2,0,0,1,1.2,8.4Z" style="fill:#757575"/><path d="M40.8,24a1.2,1.2,0,0,1-1.2-1.2V19.2a3.6,3.6,0,0,1,3.6-3.6h3.6a1.2,1.2,0,1,1,0,2.4H43.2A1.2,1.2,0,0,0,42,19.2v3.6A1.2,1.2,0,0,1,40.8,24Zm-9.6,0A1.2,1.2,0,0,1,30,22.8V19.2A1.2,1.2,0,0,0,28.8,18H25.2a1.2,1.2,0,0,1,0-2.4h3.6a3.6,3.6,0,0,1,3.6,3.6v3.6A1.2,1.2,0,0,1,31.2,24ZM46.8,8.4H43.2a3.6,3.6,0,0,1-3.6-3.6V1.2a1.2,1.2,0,1,1,2.4,0V4.8A1.2,1.2,0,0,0,43.2,6h3.6a1.2,1.2,0,1,1,0,2.4Zm-18,0H25.2a1.2,1.2,0,1,1,0-2.4h3.6A1.2,1.2,0,0,0,30,4.8V1.2a1.2,1.2,0,1,1,2.4,0V4.8A3.6,3.6,0,0,1,28.8,8.4Z" style="fill:#757575"/></svg>