<?xml version="1.0" encoding="utf-8"?>
<!-- Generator: Adobe Illustrator 16.0.0, SVG Export Plug-In . SVG Version: 6.00 Build 0)  -->
<!DOCTYPE svg PUBLIC "-//W3C//DTD SVG 1.1//EN" "http://www.w3.org/Graphics/SVG/1.1/DTD/svg11.dtd">
<svg version="1.1" id="Layer_1" xmlns="http://www.w3.org/2000/svg" xmlns:xlink="http://www.w3.org/1999/xlink" x="0px" y="0px"
	 width="150px" height="100px" viewBox="0 0 150 100" enable-background="new 0 0 150 100" xml:space="preserve">
<g id="View_Arrows">
</g>
<g id="Thumbnail_Arrows">
	<path id="Bottom_Arrow" fill="#CCCCCC" d="M63.44,70.719l11.222,11.223c0.179,0.178,0.496,0.178,0.675,0l11.223-11.223
		c0.09-0.09,0.141-0.211,0.141-0.338c0-0.125-0.051-0.246-0.141-0.338l-3.098-3.096c-0.092-0.094-0.215-0.141-0.336-0.141
		c-0.123,0-0.244,0.047-0.338,0.141L75,74.736l-7.79-7.789c-0.179-0.18-0.495-0.178-0.674,0l-3.096,3.096
		C63.254,70.23,63.254,70.533,63.44,70.719z"/>
	<path id="Top_Arrow" fill="#CCCCCC" d="M86.561,29.281L75.338,18.059c-0.179-0.179-0.496-0.179-0.675,0L63.44,29.282
		c-0.09,0.089-0.14,0.211-0.14,0.337s0.05,0.247,0.14,0.337l3.097,3.097c0.093,0.094,0.215,0.141,0.337,0.141
		s0.243-0.047,0.337-0.141L75,25.263l7.791,7.789c0.178,0.18,0.494,0.179,0.674,0l3.096-3.097
		C86.746,29.769,86.746,29.467,86.561,29.281z"/>
</g>
</svg>
