<?xml version="1.0" encoding="utf-8"?>
<!-- Generator: Adobe Illustrator 16.0.0, SVG Export Plug-In . SVG Version: 6.00 Build 0)  -->
<!DOCTYPE svg PUBLIC "-//W3C//DTD SVG 1.1//EN" "http://www.w3.org/Graphics/SVG/1.1/DTD/svg11.dtd">
<svg version="1.1" xmlns="http://www.w3.org/2000/svg" xmlns:xlink="http://www.w3.org/1999/xlink" x="0px" y="0px" width="20px"
	 height="20px" viewBox="0.5 8.5 20 20" enable-background="new 0.5 8.5 20 20" xml:space="preserve">
<g id="Album_Close">
</g>
<g id="Album_Open">
	<path fill="#FFFFFF" d="M18.488,17.711c-0.6,0.673-1.191,1.4-1.601,2.4c-0.187,0.464-0.63,0.767-1.133,0.767
		c-0.501,0-0.947-0.303-1.135-0.767c-0.478-1.166-1.197-1.96-1.896-2.728c-0.174-0.192-0.349-0.385-0.521-0.584
		c-0.009,0.003-0.017,0.006-0.024,0.009c-0.682,0.205-1.205,1.106-0.89,1.84c0.214,0.502,1.721,0.407,1.591,1.487
		c-0.107,0.889,1.053,1.12,1.463,1.079c0.41-0.049,1.042,0.674,0.723,0.991c-0.315,0.32-0.913,0.332-0.82,1.153
		c0.023,0.238,0.746,0.209,0.746,0.57c0,0.367-0.372,0.779-0.085,1.198c0.062,0.091,0.125,0.164,0.193,0.218
		c-1.387,1.274-3.233,2.056-5.26,2.056c-4.282,0-7.766-3.481-7.766-7.764c0-1.3,0.323-2.525,0.889-3.604
		c-0.002,1.396,0.743,2.554,1.092,2.902c1.14,1.137,2.793,0.779,3.004,1.732c0.214,0.95-1.135,0.952-1.045,1.68
		c0.092,0.73,1.848,0.923,1.456,1.594C6.952,24.833,7.82,24.896,7.568,26c-0.134,0.601,0.732,0.716,1.056,0.259
		c0.245-0.35,0.196-0.779,0.689-1.304c0.604-0.642,2.004-0.747,1.848-1.812c-0.267-1.766-1.984-2.041-2.731-2.454
		c-0.85-0.466-0.641-1.586-0.824-2.119c-0.258-0.756-1.131,0.213-1.597-0.229c-0.767-0.724,0.138-1.748,0.781-1.727
		c1.358,0.043,1.774,1.364,2.274,1.318c0.487-0.042,0.802-0.724,0.889-1.085c0.182-0.787-0.306-0.437-0.502-0.847
		c-0.264-0.548,0.925-1.072,1.385-1.477c0.071-0.062,0.122-0.119,0.15-0.176c0.139-0.27-0.042-0.475-0.349-0.661
		c-0.615-0.372-1.732-0.666-1.785-1.245c-0.03-0.355,0.651-0.527,1.427-0.559c0.128,0.006,0.253,0.019,0.383,0.031
		c0.063-0.364,0.168-0.723,0.309-1.066c-0.37-0.05-0.747-0.074-1.13-0.074c-4.888,0-8.862,3.976-8.862,8.862
		c0,4.888,3.975,8.862,8.862,8.862c4.886,0,8.862-3.975,8.862-8.862C18.703,18.976,18.628,18.33,18.488,17.711z M15.34,8.52
		c-2.502,0.236-4.215,2.662-3.779,5.136c0.444,2.513,2.761,3.287,3.911,6.109c0.103,0.254,0.464,0.254,0.566,0
		c1.274-3.129,3.983-3.74,3.983-6.996C20.021,10.273,17.884,8.279,15.34,8.52z M15.755,15.022c-1.245,0-2.254-1.009-2.254-2.254
		s1.009-2.255,2.254-2.255s2.256,1.01,2.256,2.255S17,15.022,15.755,15.022z"/>
</g>
</svg>
