<?xml version="1.0" encoding="utf-8"?>
<!-- Generator: Adobe Illustrator 18.1.1, SVG Export Plug-In . SVG Version: 6.00 Build 0)  -->
<svg version="1.1" id="Layer_1" xmlns="http://www.w3.org/2000/svg" xmlns:xlink="http://www.w3.org/1999/xlink" x="0px" y="0px"
	 width="20px" height="20px" viewBox="-12 31 20 20" enable-background="new -12 31 20 20" xml:space="preserve">
<g id="Album_Close">
</g>
<g id="Album_Open">
	<path fill="#FFFFFF" d="M1.8,41l5.6-5.6c0.8-0.8,0.8-2.2,0-3l-0.7-0.8c-0.8-0.8-2.2-0.8-3,0L-2,37.2l-5.6-5.6c-0.8-0.8-2.2-0.8-3,0
		l-0.8,0.8c-0.8,0.8-0.8,2.2,0,3l5.6,5.6l-5.6,5.6c-0.8,0.8-0.8,2.2,0,3l0.8,0.7c0.8,0.8,2.2,0.8,3,0l5.6-5.6l5.6,5.6
		c0.8,0.8,2.2,0.8,3,0l0.7-0.7c0.8-0.8,0.8-2.2,0-3L1.8,41z"/>
</g>
</svg>
