<?xml version="1.0" encoding="utf-8"?>
<!-- Generator: Adobe Illustrator 16.0.0, SVG Export Plug-In . SVG Version: 6.00 Build 0)  -->
<!DOCTYPE svg PUBLIC "-//W3C//DTD SVG 1.1//EN" "http://www.w3.org/Graphics/SVG/1.1/DTD/svg11.dtd">
<svg version="1.1" id="Layer_1" xmlns="http://www.w3.org/2000/svg" xmlns:xlink="http://www.w3.org/1999/xlink" x="0px" y="0px"
	 width="10px" height="15px" viewBox="0 0 10 15" enable-background="new 0 0 10 15" xml:space="preserve">
<path id="Top_Arrow" fill="#848E92" d="M9.941,4.853L5.146,0.057c-0.077-0.076-0.213-0.076-0.289,0L0.06,4.854
	C0.022,4.892,0,4.945,0,4.999c0,0.054,0.022,0.105,0.06,0.144l1.325,1.323c0.039,0.041,0.091,0.061,0.143,0.061
	c0.053,0,0.104-0.02,0.145-0.061l3.329-3.328L8.33,6.464c0.076,0.078,0.213,0.078,0.289,0l1.322-1.323
	C10.02,5.062,10.02,4.933,9.941,4.853z"/>
<path id="Top_Arrow_1_" fill="#848E92" d="M0.06,10.147l4.796,4.796c0.075,0.076,0.211,0.076,0.288,0l4.795-4.798
	C9.979,10.107,10,10.055,10,10.003c0-0.056-0.021-0.107-0.061-0.146L8.617,8.535c-0.041-0.041-0.094-0.06-0.145-0.06
	c-0.053,0-0.105,0.019-0.145,0.06L5,11.863L1.67,8.535c-0.076-0.077-0.212-0.077-0.288,0L0.06,9.857
	C-0.02,9.938-0.02,10.067,0.06,10.147z"/>
</svg>
