<?xml version="1.0" encoding="utf-8"?>
<!-- Generator: Adobe Illustrator 16.0.0, SVG Export Plug-In . SVG Version: 6.00 Build 0)  -->
<!DOCTYPE svg PUBLIC "-//W3C//DTD SVG 1.1//EN" "http://www.w3.org/Graphics/SVG/1.1/DTD/svg11.dtd">
<svg version="1.1" xmlns="http://www.w3.org/2000/svg" xmlns:xlink="http://www.w3.org/1999/xlink" x="0px" y="0px" width="10px"
	 height="10px" viewBox="25.5 8.5 10 10" enable-background="new 25.5 8.5 10 10" xml:space="preserve">
<g id="Album_Close">
</g>
<g id="Album_Open">
	<path fill="#FFFFFF" d="M32.378,13.501l2.813-2.815c0.412-0.413,0.412-1.088,0-1.5L34.817,8.81c-0.413-0.412-1.091-0.412-1.501,0
		l-2.815,2.815L27.686,8.81c-0.413-0.412-1.087-0.412-1.501,0L25.81,9.186c-0.413,0.412-0.413,1.087,0,1.5l2.814,2.815l-2.814,2.815
		c-0.413,0.411-0.413,1.086,0,1.502l0.375,0.374c0.414,0.41,1.088,0.41,1.501,0l2.815-2.814l2.815,2.814
		c0.41,0.41,1.088,0.41,1.501,0l0.374-0.374c0.412-0.416,0.412-1.091,0-1.502L32.378,13.501z"/>
</g>
</svg>
