<?xml version="1.0" encoding="utf-8"?>
<!-- Generator: Adobe Illustrator 18.1.1, SVG Export Plug-In . SVG Version: 6.00 Build 0)  -->
<svg version="1.1" id="Layer_1" xmlns="http://www.w3.org/2000/svg" xmlns:xlink="http://www.w3.org/1999/xlink" x="0px" y="0px"
	 width="150px" height="150px" viewBox="-7 36 150 150" enable-background="new -7 36 150 150" xml:space="preserve">
<g id="Album_Close">
</g>
<g id="Album_Open">
	<path fill="#848E92" d="M127.9,105.1c-4.5,5-8.9,10.5-12,18c-1.4,3.5-4.7,5.8-8.5,5.8c-3.8,0-7.1-2.3-8.5-5.8
		c-3.6-8.7-9-14.7-14.2-20.5c-1.3-1.4-2.6-2.9-3.9-4.4c-0.1,0-0.1,0-0.2,0.1c-5.1,1.5-9,8.3-6.7,13.8c1.6,3.8,12.9,3.1,11.9,11.2
		c-0.8,6.7,7.9,8.4,11,8.1c3.1-0.4,7.8,5.1,5.4,7.4c-2.4,2.4-6.8,2.5-6.2,8.6c0.2,1.8,5.6,1.6,5.6,4.3c0,2.8-2.8,5.8-0.6,9
		c0.5,0.7,0.9,1.2,1.4,1.6c-10.4,9.6-24.3,15.4-39.5,15.4c-32.1,0-58.3-26.1-58.3-58.2c0-9.8,2.4-18.9,6.7-27
		c0,10.5,5.6,19.2,8.2,21.8c8.6,8.5,21,5.8,22.5,13c1.6,7.1-8.5,7.1-7.8,12.6c0.7,5.5,13.9,6.9,10.9,12c-3.9,6.7,2.6,7.2,0.7,15.5
		c-1,4.5,5.5,5.4,7.9,1.9c1.8-2.6,1.5-5.8,5.2-9.8c4.5-4.8,15-5.6,13.9-13.6c-2-13.2-14.9-15.3-20.5-18.4
		c-6.4-3.5-4.8-11.9-6.2-15.9c-1.9-5.7-8.5,1.6-12-1.7c-5.8-5.4,1-13.1,5.9-13c10.2,0.3,13.3,10.2,17.1,9.9c3.7-0.3,6-5.4,6.7-8.1
		c1.4-5.9-2.3-3.3-3.8-6.4c-2-4.1,6.9-8,10.4-11.1c0.5-0.5,0.9-0.9,1.1-1.3c1-2-0.3-3.6-2.6-5c-4.6-2.8-13-5-13.4-9.3
		c-0.2-2.7,4.9-4,10.7-4.2c1,0,1.9,0.1,2.9,0.2c0.5-2.7,1.3-5.4,2.3-8c-2.8-0.4-5.6-0.6-8.5-0.6C26.4,53-3.4,82.9-3.4,119.5
		c0,36.7,29.8,66.5,66.5,66.5c36.7,0,66.5-29.8,66.5-66.5C129.5,114.6,129,109.7,127.9,105.1z M104.3,36.1
		c-18.8,1.8-31.6,20-28.3,38.5c3.3,18.9,20.7,24.7,29.3,45.8c0.8,1.9,3.5,1.9,4.2,0c9.6-23.5,29.9-28.1,29.9-52.5
		C139.4,49.3,123.4,34.3,104.3,36.1z M107.4,84.9c-9.3,0-16.9-7.6-16.9-16.9s7.6-16.9,16.9-16.9s16.9,7.6,16.9,16.9
		S116.8,84.9,107.4,84.9z"/>
</g>
</svg>
