<?xml version="1.0" encoding="utf-8"?>
<!-- Generator: Adobe Illustrator 18.1.1, SVG Export Plug-In . SVG Version: 6.00 Build 0)  -->
<svg version="1.1" xmlns="http://www.w3.org/2000/svg" xmlns:xlink="http://www.w3.org/1999/xlink" x="0px" y="0px" width="100px"
	 height="50px" viewBox="0 0 100 50" enable-background="new 0 0 100 50" xml:space="preserve">
<g id="Contract">
	<path fill="#FFFFFF" d="M62.8,38.7l1,1c0.4,0.4,1,0.4,1.4,0l5.9-5.9v5c0,0.6,0.5,1,1,1h1.4c0.6,0,1-0.5,1-1V29
		c0-0.3-0.1-0.5-0.3-0.7C74,28.1,73.8,28,73.5,28h-9.8c-0.6,0-1,0.5-1,1v1.4c0,0.6,0.5,1,1,1h5l-5.9,5.9
		C62.4,37.7,62.4,38.4,62.8,38.7z"/>
	<path fill="#FFFFFF" d="M75.8,26.7c0.2,0.2,0.4,0.3,0.7,0.3h9.8c0.6,0,1-0.5,1-1v-1.4c0-0.6-0.5-1-1-1h-5l5.9-5.9
		c0.4-0.4,0.4-1,0-1.4l-1-1c-0.4-0.4-1-0.4-1.4,0l-5.9,5.9v-5c0-0.6-0.5-1-1-1h-1.4c-0.6,0-1,0.5-1,1V26
		C75.5,26.3,75.6,26.5,75.8,26.7z"/>
</g>
<g id="Expand">
	<path fill="#FFFFFF" d="M24.2,26.8l-1-1c-0.4-0.4-1-0.4-1.4,0l-5.9,5.9v-5c0-0.6-0.5-1-1-1h-1.4c-0.6,0-1,0.5-1,1v9.8
		c0,0.3,0.1,0.5,0.3,0.7c0.2,0.2,0.4,0.3,0.7,0.3h9.8c0.6,0,1-0.5,1-1v-1.4c0-0.6-0.5-1-1-1h-5l5.9-5.9
		C24.6,27.8,24.6,27.1,24.2,26.8z"/>
	<path fill="#FFFFFF" d="M37.2,12.8c-0.2-0.2-0.4-0.3-0.7-0.3h-9.8c-0.6,0-1,0.5-1,1v1.4c0,0.6,0.5,1,1,1h5l-5.9,5.9
		c-0.4,0.4-0.4,1,0,1.4l1,1c0.4,0.4,1,0.4,1.4,0l5.9-5.9v5c0,0.6,0.5,1,1,1h1.4c0.6,0,1-0.5,1-1v-9.8C37.5,13.2,37.4,13,37.2,12.8z"
		/>
</g>
<g id="Guides" display="none">
</g>
</svg>
