<?xml version="1.0" encoding="utf-8"?>
<!-- Generator: Adobe Illustrator 18.1.1, SVG Export Plug-In . SVG Version: 6.00 Build 0)  -->
<svg version="1.1" id="Layer_1" xmlns="http://www.w3.org/2000/svg" xmlns:xlink="http://www.w3.org/1999/xlink" x="0px" y="0px"
	 width="20px" height="20px" viewBox="-7 36 20 20" enable-background="new -7 36 20 20" xml:space="preserve">
<g id="Album_Close">
</g>
<g id="Album_Open">
	<path fill="#FFFFFF" d="M11.4,45.2c-0.6,0.7-1.3,1.4-1.7,2.4c-0.2,0.5-0.7,0.8-1.2,0.8c-0.5,0-1-0.3-1.2-0.8c-0.5-1.2-1.3-2-2-2.7
		c-0.2-0.2-0.4-0.4-0.5-0.6c0,0,0,0,0,0c-0.7,0.2-1.3,1.1-0.9,1.8c0.2,0.5,1.8,0.4,1.7,1.5c-0.1,0.9,1.1,1.1,1.5,1.1
		c0.4,0,1.1,0.7,0.8,1c-0.3,0.3-1,0.3-0.9,1.2c0,0.2,0.8,0.2,0.8,0.6c0,0.4-0.4,0.8-0.1,1.2c0.1,0.1,0.1,0.2,0.2,0.2
		c-1.5,1.3-3.4,2.1-5.5,2.1c-4.5,0-8.2-3.5-8.2-7.8c0-1.3,0.3-2.5,0.9-3.6c0,1.4,0.8,2.6,1.1,2.9c1.2,1.1,2.9,0.8,3.2,1.7
		c0.2,1-1.2,1-1.1,1.7c0.1,0.7,1.9,0.9,1.5,1.6c-0.5,0.9,0.4,1,0.1,2.1c-0.1,0.6,0.8,0.7,1.1,0.3c0.3-0.4,0.2-0.8,0.7-1.3
		c0.6-0.6,2.1-0.7,1.9-1.8c-0.3-1.8-2.1-2-2.9-2.5c-0.9-0.5-0.7-1.6-0.9-2.1c-0.3-0.8-1.2,0.2-1.7-0.2c-0.8-0.7,0.1-1.7,0.8-1.7
		c1.4,0,1.9,1.4,2.4,1.3c0.5,0,0.8-0.7,0.9-1.1c0.2-0.8-0.3-0.4-0.5-0.8c-0.3-0.5,1-1.1,1.5-1.5c0.1-0.1,0.1-0.1,0.2-0.2
		c0.1-0.3,0-0.5-0.4-0.7c-0.6-0.4-1.8-0.7-1.9-1.2c0-0.4,0.7-0.5,1.5-0.6c0.1,0,0.3,0,0.4,0c0.1-0.4,0.2-0.7,0.3-1.1
		c-0.4-0.1-0.8-0.1-1.2-0.1c-5.1,0-9.3,4-9.3,8.9C-7,52-2.8,56,2.3,56c5.1,0,9.3-4,9.3-8.9C11.6,46.5,11.5,45.8,11.4,45.2z M8.1,36
		c-2.6,0.2-4.4,2.7-4,5.1c0.5,2.5,2.9,3.3,4.1,6.1c0.1,0.3,0.5,0.3,0.6,0c1.3-3.1,4.2-3.7,4.2-7C13,37.8,10.8,35.8,8.1,36z
		 M8.5,42.5c-1.3,0-2.4-1-2.4-2.3S7.2,38,8.5,38s2.4,1,2.4,2.3S9.8,42.5,8.5,42.5z"/>
</g>
</svg>
