<svg xmlns="http://www.w3.org/2000/svg" width="24" height="24" viewBox="0 0 24 24"><polygon points="5.86 10.93 5.86 13.07 7.45 12 5.86 10.93" style="fill:#FFFFFF"/><polygon points="11.36 9.38 11.36 6.41 6.37 9.74 8.6 11.23 11.36 9.38" style="fill:#FFFFFF"/><polygon points="17.63 9.74 12.64 6.41 12.64 9.38 15.4 11.23 17.63 9.74" style="fill:#FFFFFF"/><polygon points="6.37 14.26 11.36 17.59 11.36 14.62 8.6 12.77 6.37 14.26" style="fill:#FFFFFF"/><polygon points="12.64 14.62 12.64 17.59 17.63 14.26 15.4 12.77 12.64 14.62" style="fill:#FFFFFF"/><polygon points="12 10.49 9.74 12 12 13.51 14.26 12 12 10.49" style="fill:#FFFFFF"/><path d="M12,0A12,12,0,1,0,24,12,12,12,0,0,0,12,0Zm7.42,14.26a.63.63,0,0,1,0,.08v.11l0,0v0l0,0,0,0,0,0,0,0,0,0,0,0,0,0,0,0h0l-6.78,4.52a.64.64,0,0,1-.71,0L4.86,14.79h0l0,0,0,0,0,0,0,0,0,0,0,0,0,0,0,0v0l0,0v-.11a.63.63,0,0,1,0-.08V9.74a.62.62,0,0,1,0-.08V9.54l0,0v0l0,0,0,0,0,0,0,0,0,0,0,0,0,0,0,0h0l6.78-4.52a.64.64,0,0,1,.71,0l6.78,4.52h0l0,0,0,0,0,0,0,0,0,0,0,0,0,0,0,0v0l0,0v.11a.62.62,0,0,1,0,.08Z" style="fill:#FFFFFF"/><polygon points="18.14 13.07 18.14 10.93 16.55 12 18.14 13.07" style="fill:#FFFFFF"/></svg>