<svg xmlns="http://www.w3.org/2000/svg" width="80" height="16" viewBox="0 0 80 16"><path d="M74,15l5.67-5.67a1.07,1.07,0,1,0-1.52-1.52L72.5,13.48,66.83,7.81a1.07,1.07,0,1,0-1.52,1.52L71,15l-5.67,5.67a1.07,1.07,0,1,0,1.52,1.52l5.67-5.67,5.67,5.67a1.07,1.07,0,1,0,1.52-1.52Z" transform="translate(0 -7)" style="fill:#757575"/><path d="M39,23H11a1,1,0,1,1,0-2H39a1,1,0,1,1,0,2Z" transform="translate(0 -7)" style="fill:#757575"/><path d="M39,16H6a1,1,0,1,1,0-2H39a1,1,0,1,1,0,2Z" transform="translate(0 -7)" style="fill:#757575"/><path d="M39,9H1A1,1,0,1,1,1,7H39a1,1,0,1,1,0,2Z" transform="translate(0 -7)" style="fill:#757575"/></svg>