<?xml version="1.0" encoding="utf-8"?>
<!-- Generator: Adobe Illustrator 18.1.1, SVG Export Plug-In . SVG Version: 6.00 Build 0)  -->
<svg version="1.1" xmlns="http://www.w3.org/2000/svg" xmlns:xlink="http://www.w3.org/1999/xlink" x="0px" y="0px" width="560px"
	 height="70px" viewBox="0 0 560 70" enable-background="new 0 0 560 70" xml:space="preserve">
<g id="WordPress">
	<path fill="#464342" d="M494.975,34.999c0,11.885,6.907,22.155,16.922,27.023L497.574,22.78
		C495.909,26.514,494.975,30.646,494.975,34.999z"/>
	<path fill="#464342" d="M545.268,33.484c0-3.711-1.333-6.281-2.476-8.28c-1.522-2.473-2.949-4.568-2.949-7.041
		c0-2.76,2.093-5.329,5.042-5.329c0.133,0,0.259,0.017,0.389,0.024c-5.342-4.894-12.458-7.882-20.275-7.882
		c-10.489,0-19.717,5.382-25.086,13.533c0.705,0.022,1.369,0.036,1.933,0.036c3.14,0,8.002-0.382,8.002-0.382
		c1.618-0.095,1.809,2.282,0.192,2.473c0,0-1.627,0.191-3.436,0.287l10.934,32.523l6.571-19.707l-4.678-12.816
		c-1.616-0.095-3.149-0.287-3.149-0.287c-1.618-0.095-1.428-2.568,0.19-2.473c0,0,4.958,0.382,7.908,0.382
		c3.14,0,8.002-0.382,8.002-0.382c1.62-0.095,1.81,2.282,0.193,2.473c0,0-1.63,0.191-3.436,0.287l10.85,32.276l2.995-10.007
		C544.28,39.037,545.268,36.055,545.268,33.484z"/>
	<path fill="#464342" d="M525.526,37.626l-9.009,26.178c2.69,0.791,5.534,1.223,8.481,1.223c3.496,0,6.849-0.604,9.97-1.702
		c-0.081-0.128-0.153-0.265-0.214-0.413L525.526,37.626z"/>
	<path fill="#464342" d="M551.345,20.595c0.129,0.956,0.202,1.982,0.202,3.087c0,3.046-0.569,6.471-2.283,10.754l-9.171,26.516
		c8.926-5.206,14.93-14.877,14.93-25.953C555.023,29.779,553.69,24.871,551.345,20.595z"/>
	<path fill="#464342" d="M524.999,0C505.701,0,490,15.701,490,34.999C490,54.3,505.701,70,524.999,70
		C544.297,70,560,54.3,560,34.999C560,15.701,544.297,0,524.999,0z M524.999,68.395c-18.413,0-33.394-14.981-33.394-33.396
		c0-18.413,14.981-33.394,33.394-33.394c18.413,0,33.393,14.981,33.393,33.394C558.392,53.414,543.412,68.395,524.999,68.395z"/>
</g>
<g id="PHP">
	<path id="path22" fill="#010101" d="M434.014,29.346c2.185,0,3.642,0.413,4.37,1.238c0.728,0.826,0.901,2.243,0.52,4.251
		c-0.398,2.091-1.163,3.584-2.298,4.478c-1.135,0.894-2.862,1.341-5.181,1.341h-3.499l2.148-11.309L434.014,29.346L434.014,29.346z
		 M420,52.102h5.752l1.364-7.184h4.926c2.174,0,3.962-0.233,5.366-0.701c1.404-0.467,2.68-1.251,3.828-2.351
		c0.964-0.907,1.744-1.907,2.341-3c0.597-1.093,1.02-2.299,1.271-3.619c0.608-3.203,0.149-5.698-1.376-7.485
		c-1.526-1.787-3.953-2.681-7.28-2.681h-11.06L420,52.102z"/>
	<path id="path24" fill="#010101" d="M449.072,17.898h5.706l-1.364,7.184h5.084c3.198,0,5.405,0.571,6.619,1.713
		c1.214,1.142,1.578,2.992,1.093,5.55l-2.388,12.574h-5.797l2.27-11.955c0.258-1.36,0.163-2.288-0.285-2.782
		c-0.449-0.495-1.403-0.742-2.863-0.742h-4.561l-2.94,15.48h-5.706L449.072,17.898z"/>
	<path id="path26" fill="#010101" d="M478.906,29.346c2.185,0,3.641,0.413,4.37,1.238c0.728,0.826,0.901,2.243,0.52,4.251
		c-0.398,2.091-1.163,3.584-2.298,4.478c-1.135,0.894-2.862,1.341-5.181,1.341h-3.499l2.147-11.309L478.906,29.346L478.906,29.346z
		 M464.892,52.102h5.752l1.364-7.184h4.926c2.174,0,3.962-0.233,5.366-0.701c1.404-0.467,2.68-1.251,3.828-2.351
		c0.964-0.907,1.744-1.907,2.341-3c0.597-1.093,1.02-2.299,1.271-3.619c0.608-3.203,0.149-5.698-1.376-7.485
		c-1.526-1.787-3.953-2.681-7.28-2.681h-11.06L464.892,52.102z"/>
</g>
<g id="Cordova">
	<polygon fill-rule="evenodd" clip-rule="evenodd" fill="#454545" points="404.091,0 365.909,0 350,26.667 362.727,26.667 
		369.091,13.333 400.909,13.333 407.273,26.667 420,26.667 	"/>
	<polygon fill-rule="evenodd" clip-rule="evenodd" fill="#454545" points="407.273,26.667 404.091,53.333 365.909,53.333 
		362.727,26.667 350,26.667 356.364,70 367.699,70 366.903,60 372.472,60 373.267,70 396.733,70 397.528,60 403.097,60 402.301,70 
		413.636,70 420,26.667 	"/>
	<path fill-rule="evenodd" clip-rule="evenodd" fill="#454545" d="M379.432,12.5l-0.795,5.833h12.727l-0.795-5.833H379.432z"/>
	<path fill-rule="evenodd" clip-rule="evenodd" fill="#454545" d="M395.341,32.083c0.879,0,1.591,2.776,1.591,6.2
		c0,3.424-0.712,6.2-1.591,6.2s-1.591-2.776-1.591-6.2C393.75,34.859,394.462,32.083,395.341,32.083z"/>
	<path fill-rule="evenodd" clip-rule="evenodd" fill="#454545" d="M375.256,32.6c0.879,0,1.591,2.776,1.591,6.2
		c0,3.424-0.712,6.2-1.591,6.2s-1.591-2.776-1.591-6.2C373.665,35.376,374.377,32.6,375.256,32.6z"/>
</g>
<g id="GreenSock">
	<path fill="#010101" d="M294.281,30.6c-2.044,0.961-7.452,5.288-8.494,6.571c-1.082,1.282-1.402-0.721-0.281-4.047
		c0.881-2.684,3.125-6.33,6.891-9.455c2.203-1.803,7.052-4.407,10.016-5.93c0.601-0.321,8.374-3.606,15.305-5.249
		c0.601-0.16-0.721,1.002-0.922,1.643c-1.042,3.045-21.836,16.106-21.836,16.106L294.281,30.6z"/>
	<path fill="#010101" d="M323.569,67.34c0.361,2.164,0.04,2.324-2.203,2.604c-2.244,0.281-3.886-0.561-4.487-1.122
		c-0.601-0.561-0.721-1.803-0.12-2.925c0.361-0.721,0.721-0.962,0.922-1.843c0.2-0.841,0.361-1.042,0.521-1.362
		c0.16-0.281,0.2-0.561,0.24-2.524c0.04-1.963,0-5.649,0.2-7.212c0.2-1.603,7.132,0.721,7.132,0.721s-1.643,4.087-2.083,5.088
		c-0.441,1.002-0.401,2.925-0.401,3.325c0,0.401-0.16,1.202-0.28,1.242c-0.12,0.04,0.401,1.082,0.16,1.683
		C323.008,65.577,323.529,67.02,323.569,67.34z"/>
	<path fill="#010101" d="M326.213,6.08c-0.241-1.522,0-4.528,0.32-5.008c1.002-1.362,6.29-1.522,7.412,0.08
		c0.481,0.721,0.441,2.404,0.361,3.486c-0.08,1.082-0.361,3.405-0.401,4.167c-0.04,0.561-5.849,1.442-7.132-0.08
		C326.413,8.324,326.213,6.08,326.213,6.08z"/>
	<path fill="#010101" d="M337.992,63.454c2.444,1.763,4.327,2.083,5.569,2.724c1.242,0.641,0.922,1.883-1.162,2.244
		c-1.683,0.32-4.327-0.321-6.09-0.321c-1.763,0-5.689,0.2-6.731-0.521c-1.202-0.841-0.681-2.404-0.681-2.404
		c0.321-0.881,1.122-2.845,0.881-4.447c-0.24-1.603-0.561-2.484-1.162-3.966c-0.601-1.482-1.042-5.128-0.481-5.329
		c0.561-0.2,0.4,0,1.122,0.16c0.721,0.16,1.522,0.401,3.085,0.401c1.563,0,3.285-0.241,3.886-0.361
		c0.601-0.12,1.082-0.241,0.881,1.002c-0.2,1.242-0.801,3.566-0.841,5.369c-0.04,1.803-0.04,3.886,0.08,4.247
		C336.47,62.612,337.351,63.013,337.992,63.454z"/>
	<g>
		<g>
			<path fill="#8AC640" d="M329.418,10.087c-4.407,3.806-12.941,4.848-25.602,9.736c-3.245,1.242-11.899,4.968-13.983,8.854
				c7.011-4.047,9.616,1.522,10.176,7.252c0.521,5.369,3.205,8.173,10.096,8.013c7.092-0.16,9.255,3.966,11.218,8.815
				c3.806-18.55,9.896-22.156,13.822-25.321C343.481,20.664,333.224,8.724,329.418,10.087z"/>
			<path fill="#8AC640" d="M329.418,10.087c-10.577,3.686-21.034,4.608-33.334,12.18c-2.925,1.803-9.095,5.889-10.297,13.702
				c4.487-4.968,14.864-11.218,27.565-15.185c6.41-2.003,11.098-3.325,16.787-5.529C329.739,12.691,329.739,11.689,329.418,10.087z"
				/>
		</g>
		<path fill="#010101" d="M342.92,32.042c0,0-0.761,2.604-2.284,3.446c0,0-1.122,0.401-3.365-0.841
			c-0.641-0.361-1.122-1.603-1.082-2.003c0.04-0.962,0.641-1.402,0.641-1.402s0.641-1.082,1.402-1.042
			c0.761,0.04,2.044,0.16,2.444-0.2C341.037,29.598,343,30.72,342.92,32.042z"/>
		<path fill="#010101" d="M326.574,6.841c0,0-0.16,2.044-0.441,3.325c-0.04,0.241-1.242,0.361-2.124,0.721
			c1.683,4.808,11.819,4.768,13.142,2.404c-0.641-0.441-1.923-1.122-2.524-1.362c-0.601-0.241-0.561-0.2-0.601-1.322
			c-0.04-1.122-0.12-3.205-0.2-3.766C333.745,6.28,327.535,6.28,326.574,6.841z"/>
		<path fill="#F0EFEF" d="M326.974,6.841c0,0,0,1.162-0.12,2.284c-0.04,0.521-0.08,0.841-0.16,1.242
			c-0.04,0.241,1.362,1.202,1.763,3.325c1.923,4.287,6.371,2.164,8.213,0.12c-0.641-0.441-1.683-1.042-2.885-1.522
			c-0.601-0.241-0.321-0.761-0.361-1.883c-0.04-1.122-0.2-2.765-0.28-3.366C333.064,6.441,327.936,6.28,326.974,6.841z"/>
		<path fill="#010101" d="M326.574,6.841c0,0-0.04,0.721-0.16,1.563c0.521,0.521,1.202,1.242,1.723,1.683
			c0.361,0.321,1.242,0.28,2.043,0.28c0.721,0,1.362,0.08,1.643-0.08c0.641-0.321,1.563-1.122,2.083-1.723
			c-0.04-0.721-0.08-1.402-0.12-1.723C333.745,6.28,327.535,6.28,326.574,6.841z"/>
		<path fill="#010101" d="M330.22,9.886c-0.481,0-1.042-0.04-1.483-0.12c-0.2-0.04-0.401-0.16-0.561-0.24
			c-0.28-0.2-0.561-0.441-0.881-0.681c-0.641-0.481-0.681-0.761-0.681-0.881c0.28-2.524-0.08-4.648-0.08-4.648
			s-0.28-1.082,1.242-1.362s2.444-0.32,2.444-0.32s0.962,0,2.444,0.32c1.522,0.28,1.242,1.362,1.242,1.362s-0.361,2.123-0.08,4.648
			c0,0.12-0.04,0.4-0.681,0.881c-0.561,0.401-1.002,0.841-1.442,0.922C331.261,9.846,330.7,9.886,330.22,9.886z"/>
		<path fill="#010101" d="M330.22,0.591c-2.644,0-3.165,0.721-3.927,1.522c-0.16,0.2-0.04,1.402,0.241,3.966h0.361
			c0,0-0.241-0.721-0.2-1.563s0.2-0.801,0.08-1.002c-0.16-0.241-0.481-0.641,0.241-1.042c0.721-0.401,1.843,0.32,3.205,0.361
			c1.362-0.04,2.524-0.761,3.245-0.361c0.721,0.4,0.401,0.801,0.241,1.042c-0.16,0.24,0.04,0.16,0.08,1.002
			c0.04,0.841-0.2,1.563-0.2,1.563h0.361c0.24-2.564,0.401-3.686,0.28-3.886C333.545,1.312,332.864,0.631,330.22,0.591z"/>
		<path fill="#010101" d="M342.92,32.163c0,0-0.761,2.444-2.244,3.285c-0.321-0.16-0.28-0.4-0.561-0.761
			c-0.08-0.12-0.361-0.2-0.481-0.32c-0.12-0.12-0.08-0.321-0.28-0.481c-0.16-0.16-0.281-0.04-0.441-0.16
			c-0.16-0.16-0.2-0.361-0.32-0.481c-0.08-0.08-0.401-0.12-0.481-0.2c-0.2-0.2-1.963-0.561-1.883-0.962
			c0.16-0.601,0.481-1.042,0.481-1.042s0.761-1.122,1.522-1.082c0.761,0.04,1.483,0.2,1.883-0.16
			C340.556,29.398,343.041,30.881,342.92,32.163z"/>
		<path fill="#010101" d="M337.712,14.454c0,0,2.524-0.601,4.247,1.042c1.723,1.683,1.603,3.766,1.082,5.048
			c0.441,0.521,1.242,1.963,0.641,3.686c2.644,2.244,1.482,5.689-0.881,7.973c0,0-0.561-2.083-2.805-2.204
			c0.08-0.801-2.083-1.442-1.082-3.526c-1.522-0.361-1.482-1.402-1.723-2.684C336.991,22.507,337.712,14.454,337.712,14.454z"/>
		<path fill="#F0EFEF" d="M336.79,15.576c0,0,2.925-1.482,4.648,0.2c1.723,1.683,1.242,3.526,0.721,4.808
			c0.441,0.521,1.482,2.003,0.841,3.766c-0.12,0.401-1.002,0.401-1.643,1.442c1.603-0.922,2.604-0.681,2.965,0.481
			c0.561,1.803-0.681,3.966-1.763,5.168c0-0.04-0.04-0.08-0.04-0.12c-0.16,0.601-0.361,1.763-1.562,3.045
			c-0.601,0.641-1.082,0.561-1.763,0.401c-0.801-0.2-1.082-0.561-2.203-1.162c-0.641-0.361-0.281-0.801-0.281-1.162
			c0-0.08,0.08-0.2,0.2-0.361c0.08-0.2,0.32-0.521,0.681-0.881c0,0,0.521-0.721,1.282-0.681c0.761,0.04,1.562-0.12,1.763-0.32l0,0
			c0-1.402-1.603-1.442-1.042-3.846c0.04-0.12,0.241-0.321,0.881-0.401c-0.962-0.2-1.402-0.241-2.083-0.881
			c-0.481-0.441-0.841-1.002-0.962-1.723C337.191,22.106,336.79,15.576,336.79,15.576z"/>
		<path fill="#010101" d="M328.336,13.052c-0.24-0.321-1.482-1.923-3.846-2.564c-0.681-0.2-1.122,0.361-1.803,0.761
			c-0.2-0.12-1.082-0.521-1.563-0.241c-0.481,0.28-0.801,0.561-1.282,0.761c-0.241-0.12-0.881-0.12-1.402,0.08
			c-0.521,0.16-1.322,0.521-2.083,1.563c-0.481,1.723,8.494,0.441,8.494,0.441L328.336,13.052z"/>
		<path fill="#8AC640" d="M328.417,13.052c-1.282-0.441-1.082-1.923-3.927-2.164c-0.561-0.04-0.922,0.4-1.322,0.681
			c0.2,0.2,0.401,0.521,0.521,0.841c-0.361-0.4-1.002-0.922-1.643-1.042c-0.601-0.12-1.002,0.321-1.643,0.641
			c0.12,0.12,0.24,0.32,0.4,0.561c-0.561-0.361-0.961-0.481-1.723-0.2c-0.521,0.16-1.522,0.601-2.284,1.683
			c-0.481,1.723,8.093-0.2,8.093-0.2L328.417,13.052z"/>
		<path fill="#010101" d="M335.949,13.693c0,0,0-0.441-0.04-0.841c0-0.08-0.32-0.28-0.32-0.361l-0.08-0.08
			c0,0,0.641-0.361,1.122-0.16c0.521,0.16,0.801,0.841,0.801,0.841c0.922-0.32,1.002,0.04,1.442,0.521
			c0.962-0.2,1.082,0.16,1.683,1.042c0,0-0.721-0.12-2.123,0.12C337.071,14.975,335.949,13.653,335.949,13.693z"/>
		<path fill="#8AC640" d="M335.789,13.492c0,0,0.24-0.2,0.16-0.241c0.441-0.24,1.042-0.521,1.322,0.241
			c0.922-0.321,1.042,0.12,1.482,0.601c1.122-0.521,1.202,0.12,1.282,0.4c-0.361,0-0.881,0.04-1.603,0.12
			C337.071,14.814,335.749,13.452,335.789,13.492z"/>
		<path fill="#010101" d="M322.167,12.491c0,0,2.284,0.801,4.207,0.681c1.923-0.16,5.208-0.32,6.971,0.721
			c0,0,1.803-0.641,3.486-0.2c1.683,0.441,4.768,3.325,3.846,6.37c-0.08,0.2-0.601,0.521-1.202,0.721c0,0,0.321,1.362-0.24,2.484
			c-0.561,1.082-1.803,3.165-1.843,6.05l0,0c-0.04,0.481-0.12,1.482-0.2,1.963c-3.125-0.12-7.933-1.282-12.661-1.202
			c0.04-0.521,0.08-0.841,0.12-1.362h0.12c-0.24-1.322-0.32-2.003-0.561-3.005c-1.522-0.961-3.125-2.083-4.487-4.207
			C318.4,19.382,322.167,12.491,322.167,12.491z"/>
		<path fill="#010101" d="M337.632,34.126c0,0,2.484,8.895-0.441,12.621c0,0,0.441,1.723-0.561,3.566
			c-0.16,0.801-0.361,1.522-0.481,2.324c-0.521,3.325-1.402,4.728-1.643,10.056l-2.404-0.04c0,0-0.28-3.846-1.122-5.89
			c-0.481-1.162-2.364-2.724-2.283-4.287c0.08-1.202,0.32-2.204,2.364-3.806c0.16-2.324-2.164-4.527-1.803-13.181L337.632,34.126z"
			/>
		<path fill="#F0EFEF" d="M336.911,33.765c0.641,4.087,2.123,10.137-0.561,13.101c0.12,0.561,0.2,1.362,0.04,2.284
			c-0.08,0.481-0.24,1.002-0.441,1.562c-0.401,0.962-0.561,2.364-0.681,3.205c-0.521,3.325-0.521,3.486-0.761,8.815l-2.404-0.04
			c0,0-0.281-3.846-1.122-5.889c-0.481-1.162-1.482-2.164-1.562-3.726c-0.08-1.202,0.761-3.606,2.765-3.526
			c-0.12-4.848-2.364-3.886-2.965-13.983L336.911,33.765z"/>
		<path fill="#F0EFEF" d="M322.167,12.491c0,0,0.881,0.28,1.843,0.361c0.962,0.08,2.003,0,2.925-0.04
			c1.923-0.16,4.648-0.361,6.451,0.681c0,0,1.002-0.321,2.083-0.241c0.481,0.04,0.962,0.441,1.522,0.601
			c1.763,0.441,3.446,3.365,2.684,6.01c-0.08,0.2-0.641,0-1.282,0.2c0.12,0.561,0.2,1.843-0.441,3.205
			c-0.681,1.362-1.562,3.125-1.402,6.491c-4.207-0.2-6.09-0.481-10.257-0.681c-0.361-1.483-0.601-2.965-0.641-3.726
			c0.561-0.28,0.881-0.521,1.322-1.002c-1.202,0.2-1.683,0.12-2.404-0.28c-0.721-0.401-2.003-1.683-2.644-2.524
			c-0.08-0.08-0.521,1.242-1.522,1.282c-0.361-0.521,1.162-2.003,0.881-2.564C320.283,18.22,322.167,12.491,322.167,12.491z"/>
		<path fill="#010101" d="M337.231,30.44c0,0,0.08,1.442,0.08,1.803c0,0.401,0.321,1.603,0.361,2.164
			c-0.441,0.761-2.364,2.484-5.849,3.125c-3.446,0.721-8.013-4.688-8.013-4.688c0.12-0.521,0.521-2.044,0.801-2.845
			c0.04-0.08,0.12-0.28,0.12-0.361C325.091,29.118,337.231,30.44,337.231,30.44z"/>
		<path fill="#F0EFEF" d="M336.35,30.56c0,1.002,0.16,1.723,0.281,2.364c0.2,1.162,0.521,1.923,0.521,2.684
			c0,2.324-3.045,1.923-5.609,2.003c-3.446,0.721-6.37-4.688-6.37-4.688c0.24-0.922,0.401-1.963,0.761-2.845l0,0
			c0.04-0.481,0.12-1.082,0.16-1.362c4.888,0,8.334,0.28,10.337,0.481C336.51,29.639,336.43,30.4,336.35,30.56L336.35,30.56z"/>
		<path fill="#010101" d="M332.503,35.728c0,0-2.123-4.728-8.494-3.325c-1.522,4.287-3.566,9.215-2.244,14.544
			c-1.322,1.803-2.845,2.805-2.845,6.13c0,3.325,0.16,3.886,0.16,3.886l4.688,0.241c0,0,1.522-1.963,2.123-4.087
			c0.16-0.601,0.321-1.683,0.2-2.925c0.16-0.24,0.841-0.801,0.922-1.883c0,0,2.284-1.202,3.606-4.127
			C331.862,41.538,331.542,39.254,332.503,35.728z"/>
		<path fill="#F0EFEF" d="M332.503,35.728c-0.12-0.441-1.723-4.768-7.652-3.486c-3.486,9.295-2.203,13.142-1.683,14.824
			c-2.364,3.005-3.446,3.646-2.965,9.736h3.125c1.442-2.284,1.763-3.125,1.843-6.13c0-0.12-0.441,0.24-0.761,0.641
			c0.241-1.242,0.922-1.482,1.442-2.244c0.24-0.321,0.441-0.801,0.441-1.442c2.805-1.883,3.846-4.247,4.447-6.691
			C331.221,39.254,331.782,36.49,332.503,35.728z"/>
		<path fill="#010101" d="M322.607,29.278c0,0,1.082,0.04,2.044,0.361c0.922,0.32,0.922,0.521,1.282,0.922
			c0.361,0.401,1.242,1.002,1.082,1.603c-0.08,0.321-0.28,0.401-0.561,0.681c-0.12,0.12-1.002,1.082-1.202,1.202
			c-0.12,0.08-0.28,0.2-0.401,0.28c-0.12,0.08-0.481,0.321-0.601,0.401c-0.401,0.2-0.681,0.321-1.122,0.28
			c0,0-1.002-0.04-1.643-0.721c0,0-0.08-0.321,0.08-0.481c0,0-0.841-0.721-1.082-1.202c-0.241-0.481-0.241-1.162-0.08-1.522
			C320.484,30.72,322.046,29.719,322.607,29.278z"/>
		<path fill="#010101" d="M323.609,68.262l-0.12,1.002c0,0-0.361,0.441-3.045,0.401c-2.725-0.04-3.446-0.881-3.686-1.322
			l-0.16-1.042c0,0,0.521-0.761,0.641-0.761c0.881,0.08,3.886,1.282,5.97,1.603C323.409,68.141,323.448,68.221,323.609,68.262z"/>
		<path fill="#010101" d="M329.418,66.218c0,0.441-0.04,0.441-0.04,0.881c0.481,0.361,1.683,0.561,3.966,0.521
			c3.325-0.08,6.41,1.002,10.176,0.361l0.04-0.721l-0.361-0.04l-13.342-1.082L329.418,66.218z"/>
		<path fill="#010101" d="M332.343,67.62c0.321,0,0.641,0,1.002,0c2.164-0.08,4.207,0.401,6.41,0.521
			c1.162-0.04,2.604-0.321,2.484-1.162l-11.379-0.962C330.18,66.779,330.7,67.42,332.343,67.62z"/>
		<path fill="#010101" d="M319.282,50.753c0.361,0.24,2.805,1.683,6.771,1.482c-0.08,0.761-0.04,2.244-1.803,4.848
			c-0.881,1.282-1.643,3.526-1.803,6.371c0.04,0.641,0.401,1.202-0.08,2.043c0.16,0.521,0.801,1.562,1.122,2.203
			c0.32,0.641,0.481,1.362-1.643,1.402c-2.164,0.04-5.649-0.2-5.168-1.883c0.241-0.881,0.922-1.803,1.002-2.164
			c0.08-0.361,0.08-1.442,0.761-2.164c0.601-2.003,0.401-3.926,0.281-5.729C318.521,55.28,318.48,52.275,319.282,50.753z"/>
		<path fill="#010101" d="M323.008,18.1c2.845-3.806,0.441-6.851-4.127-5.93c-1.843,0.361-3.686,1.643-3.806,3.966
			c-0.601,0.08-1.963,0.16-2.644,2.644c-0.521,1.923-0.801,2.284-1.723,3.245c-0.601,0.681,0.04,2.083,0.481,3.085
			c1.483,3.446,6.05,3.766,9.135,6.37c1.042-0.28,2.123-1.442,2.444-2.203c-2.604-3.085-2.044-4.287-3.085-5.89
			C320.804,22.988,323.368,21.425,323.008,18.1z"/>
		<path fill="#F0EFEF" d="M322.447,17.859c0.16-0.241,0.441-0.761,0.561-0.962c0.04-0.04,0.481,0.721,0.521,0.681
			c1.082-1.763,1.362-4.327,0.12-4.568c-0.28-0.04-0.801-0.16-1.242-0.321c-0.801-0.28-1.522-0.28-2.805-0.04
			c-1.763,0.32-3.526,1.603-3.526,3.446c0,0.12,1.242,0.481,1.603,1.963c-0.601-0.841-1.643-1.763-2.885-0.962
			c-1.322,0.841-0.641,2.764-2.404,4.768c-0.601,0.681-0.521,1.483,0.12,3.085c1.042,2.524,5.97,3.886,8.654,6.29
			c0.641-0.28,1.082-0.922,1.402-1.402c-1.803-1.883-2.524-3.646-3.045-4.928c-0.641-1.482-1.362-2.324-2.765-3.446
			c0.721,0.28,1.282,0.561,1.603,0.801c0.361,0.24,0.881,0.28,1.362,0.12C321.445,21.786,322.367,19.382,322.447,17.859z"/>
		<path fill="#010101" d="M339.875,18.5c-0.12,1.522-1.242,0.761-1.843,0.481c-1.202-0.521-2.404-0.881-3.806-0.881
			s-3.205,0.12-4.768,0.521c-2.163,0.601-2.805,0.561-3.766,0.08c-0.961-0.521-2.644-1.803-2.644-1.803s-0.04,0.401,0.361,0.922
			c0.521,0.641,1.683,1.442,3.245,1.963c0.761,0.241,1.362,0.08,2.044-0.08c3.566-0.881,7.332-1.042,10.497,0.881
			c0.16,0.08,0.721-0.16,0.962-0.521C340.476,19.542,339.875,18.5,339.875,18.5z"/>
		<path fill="#0A1825" d="M321.646,33.765c0.32,0.2,0.721,0.321,1.162,0.681c0,0-0.361,0-0.521-0.16
			C322.086,34.166,321.686,33.806,321.646,33.765L321.646,33.765z"/>
		<path fill="#F0EFEF" d="M333.224,1.994c-0.12-0.361-1.002-1.002-3.045-1.002c-2.204,0-2.845,0.681-2.885,1.042
			c0,0.12-0.16,1.402-0.2,1.923c0,0,0,0.641,0.04,1.603c0.04,0.641,0.2,1.002,0.28,1.843c0.08,0.881,0.321,1.442,0.761,2.164
			c0.2,0.12,0.361,0.24,0.561,0.28c0.801,0.16,2.204,0.2,2.965,0c0.441-0.12,1.002-0.881,1.122-1.563
			c0.16-0.841,0.32-1.442,0.361-1.963c0.08-0.521,0.12-1.683,0.16-2.003C333.465,3.436,333.264,2.074,333.224,1.994z"/>
		<path fill="#010101" d="M329.018,51.514c0,0,2.124,0.922,7.372,0.12c0,0-1.482,7.452-0.801,11.178c0,0,0.681,0.962,5.729,2.805
			c0,0,2.244,0.561,2.164,1.683c0,0,0.08,0.24-2.644,0.16c-2.724-0.08-5.289-0.561-7.092-0.561c-1.803,0-3.726,0.08-4.047-0.441
			c-0.361-0.481,0.08-1.723,0.601-2.444c0.561-0.761,0.401-1.322,0.361-2.684C330.54,57.764,327.816,54.078,329.018,51.514z"/>
		<path fill="#8AC640" d="M328.577,52.195c-0.28,0.401,0.04,1.923,0.441,3.405c0.401,1.482,1.282,2.364,1.483,4.808
			c0.2,2.404,0.24,2.724-0.441,4.127s-0.881,2.684,1.482,2.725c2.364,0.04,3.646-0.04,6.05,0.321
			c2.404,0.361,3.245,0.481,4.568,0.281c1.322-0.2,1.603-0.641,1.042-1.042c-0.561-0.401-2.885-0.841-3.886-1.643
			c-0.962-0.721-3.686-1.923-3.726-2.244c-0.12-1.082-0.16-5.008,0.04-6.29c0.2-1.282,0.481-3.125,0.561-3.606
			c0.08-0.481,0.481-0.962-0.2-0.801c-0.681,0.16-3.245,0.521-5.168,0.401C328.897,52.516,328.697,52.075,328.577,52.195z"/>
		<path opacity="0.3" fill="#010101" enable-background="new    " d="M329.939,64.576c0.681,0.32,1.683,0.561,2.444,0.561
			c0,0-0.281,1.322,0.16,2.123c0.441,0.801-3.205,0.321-3.205,0.321l-0.16-2.845L329.939,64.576z"/>
		<path opacity="0.3" fill="#010101" enable-background="new    " d="M340.556,68.021c0.641-0.2,1.082-0.922,0.561-1.603
			c-0.561-0.681-1.042-0.801-0.321-0.841c0.721-0.04,3.366,1.562,3.366,1.562l-1.362,1.242L340.556,68.021z"/>
		<path opacity="0.3" fill="#010101" enable-background="new    " d="M328.457,53.758c0.922,0.321,2.324,0.401,3.526,0.361
			c1.202-0.04,3.005-0.2,4.167-0.601c1.162-0.401,0.681,0.441,0.681,0.441l-0.641,0.601c0,0-1.522,0.601-4.006,0.561
			c-2.925-0.04-3.806-0.361-3.806-0.361L328.457,53.758z"/>
		<path opacity="0.3" fill="#010101" enable-background="new    " d="M328.537,55.761c0.922,0.321,2.324,0.401,3.526,0.361
			c1.202-0.04,2.805-0.04,3.966-0.481c0.481-0.16,0.2,0.521,0.2,0.521l-0.2,0.361c0,0-1.563,0.561-4.007,0.521
			c-2.925-0.04-3.446-0.28-3.446-0.28L328.537,55.761z"/>
		<path fill="#010101" fill-opacity="0" d="M329.018,51.514c0,0,3.486,1.242,7.412,0.401c0,0-1.522,7.172-0.841,10.858
			c0,0,0.681,0.961,5.729,2.805c0,0,2.244,0.561,2.164,1.683c0,0,0.08,0.241-2.644,0.16c-2.725-0.08-5.289-0.561-7.092-0.561
			c-1.803,0-3.726,0.08-4.047-0.441c-0.361-0.481,0.08-1.723,0.601-2.444c0.561-0.761,0.401-1.322,0.361-2.684
			C330.54,57.764,327.816,54.078,329.018,51.514z"/>
		<path fill="#010101" fill-opacity="0" d="M329.018,51.514c0,0,3.486,1.202,7.412,0.361c0,0-1.522,7.212-0.841,10.898
			c0,0,0.681,0.961,5.729,2.805c0,0,2.244,0.561,2.164,1.683c0,0,0.08,0.241-2.644,0.16c-2.725-0.08-5.329-0.841-7.092-0.561
			c-1.883,0.321-3.726,0.2-4.047-0.441c-0.28-0.521,0.08-1.723,0.601-2.444c0.561-0.761,0.401-1.322,0.361-2.684
			C330.54,57.764,327.816,54.078,329.018,51.514z"/>
		<path fill="#010101" d="M325.892,27.676c0,0.28,3.125,1.843,4.848,2.164c1.723,0.32,5.329,0,5.89-0.12l-0.08,0.561
			c0,0-4.287,0.641-7.572-0.24c-3.285-0.881-2.925-1.082-2.925-1.082L325.892,27.676z"/>
		<g>
			<path fill="#F0EFEF" d="M319.202,61.851c0.481,0.241,2.204,0.681,3.325,0.441c0.16-0.04,0-2.765,0.441-4.007
				c0.641-1.723,1.683-3.125,2.163-6.17c-1.683-0.16-3.606-0.601-4.608-0.922C319.242,55.12,319.682,58.486,319.202,61.851z"/>
			<path fill="#F0EFEF" d="M321.886,64.375c0.28,0.08,0.481,0.4,0.561,0.2c0.16-0.361-0.28-1.042-0.321-1.522c0-0.04,0,0,0-0.04
				c-0.361-0.32-2.805-0.361-2.644-0.2c-0.281,0.521-0.721,0.441-0.881,1.483c-0.08,0.521,0.561,0.08,1.162,0.04
				c-1.082,0.721-2.324,1.643-2.524,2.444c-0.24,1.122,0.16,1.442,1.362,2.044c1.042,0.24,2.284,0.281,3.245,0.24
				c1.082-0.2,1.282-0.721,0.962-1.442C322.327,66.539,322.006,65.137,321.886,64.375z"/>
		</g>
		<path fill="#010101" d="M322.327,12.33c1.322,0.761,3.165,0.561,3.846,0.521c0.16,0,1.763-0.28,1.843-0.241
			c0.16,0.04,0.16,0.16,0.16,0.16s-0.601,0.32-1.963,0.4c-1.282,0.08-2.805,0-3.646-0.4C321.565,12.33,322.327,12.33,322.327,12.33z
			"/>
		<path fill="#010101" d="M335.949,13.092c0.24,0.16,1.803,0.761,2.484,1.482c0.601,0.641,0.28,0.601,0.16,0.441
			c-0.16-0.2-1.402-1.042-1.883-1.242s-1.082-0.561-1.082-0.641C335.628,13.052,335.949,13.092,335.949,13.092z"/>
		<path fill="#F0EFEF" d="M322.126,29.719c1.162-0.08,2.364,0.2,3.125,1.002c0.401,0.401,1.042,0.841,0.962,1.242
			c0,0.12-0.241,0.441-0.441,0.681c-0.12,0.16-0.481,0.521-0.601,0.641c-0.16,0.12-0.721,0.561-0.841,0.641
			c-0.12,0.08-0.28,0.281-0.401,0.321c-0.4,0.2-0.841,0.04-1.242-0.16c-0.4-0.2,0.08-0.241-0.361-0.561
			c-1.082-0.761-1.683-1.282-1.242-2.765C321.125,30.48,321.565,30.159,322.126,29.719z"/>
	</g>
	<path opacity="0.4" fill="#010101" enable-background="new    " d="M311.91,20.544c-3.606,1.442-12.781,6.01-15.385,7.412l0,0
		c2.164,1.362,3.165,4.647,3.486,7.973c0.04,0.321,0.08,0.601,0.12,0.922c0.04,0.28,0.08,0.481,0.12,0.601c0,0.04,0,0.12,0.04,0.16
		c2.364-6.45,10.818-13.262,11.138-13.782c0.16-0.24-0.2-1.282,0.361-2.283C312.511,20.263,313.913,19.702,311.91,20.544z"/>
	<path opacity="0.4" fill="#010101" enable-background="new    " d="M320.484,50.793c1.843-3.686,1.883-7.212,1.843-11.339
		c0-1.723,1.242-4.167,0.601-3.486c-2.404,2.684-8.454,7.733-12.821,8.013C316.237,43.782,318.641,46.867,320.484,50.793z"/>
	<path fill="#010101" d="M292.999,31.361c2.284-1.643,14.103-7.933,16.948-8.814c2.844-0.922,1.963-2.003,1.963-2.003
		s-11.539,4.968-18.43,9.255"/>
	<path opacity="0.4" fill="#010101" enable-background="new    " d="M326.654,19.783c-0.922-0.361-1.643,0.721-1.402,1.763
		c0.241,1.042,2.404,2.203,2.284,6.01c-0.08,3.125-0.761,4.407-0.761,4.407l-1.522-1.923c0,0-0.24-4.327-0.761-4.968
		c-0.521-0.641-2.164-1.803-2.805-2.404c-0.641-0.601,0.721-1.402,0.641-2.524c-0.08-1.082,0.681-3.245,0.681-3.245L326.654,19.783z
		"/>
	<path opacity="0.4" fill="#010101" enable-background="new    " d="M332.223,36.85c-0.08,3.005,0.601,7.452,0.881,9.576
		c0.281,2.123,0.641,2.284,0,3.245c-0.641,0.922-1.482,2.444-1.482,2.444l-2.765-0.241c0,0,2.204-2.805,2.324-3.325
		c0.12-0.521-1.122-4.487-1.122-4.487L332.223,36.85z"/>
	<path opacity="0.4" fill="#010101" enable-background="new    " d="M326.894,8.805c0.561,1.242,1.242,1.803,2.324,2.164
		c0.641,0.24,3.165,0.561,4.167-0.561c0.441-0.521,0.16-1.923,0.16-1.923l-2.284,1.843l-3.085-0.561l-0.361-0.922L326.894,8.805z"/>
	<path fill="#8AC640" stroke="#010101" stroke-width="1.586" stroke-linejoin="round" stroke-miterlimit="10" d="M327.134,11.569
		c1.042,0.681,3.646,1.322,4.367,1.442c0.721,0.16,1.883-0.761,2.444-1.002c0.601-0.28,1.643-0.441,2.845,0.641
		c0.12,0.12-0.28,0.641-0.28,0.641c-0.04-0.04-0.28-0.04-0.601-0.2c-0.32-0.16-0.601-0.28-1.082-0.24
		c-2.003,0.24-2.324,0.922-4.087,0.521c-1.763-0.401-2.204-0.721-3.926-0.641"/>
	<path fill="#8AC640" d="M326.774,11.689c1.322,0.561,3.886,1.162,4.607,1.322c0.721,0.16,1.883-0.561,2.444-0.922
		c1.002-0.641,2.284-0.12,2.885,0.561c0.4,0.441,0.561,0.721,0.561,0.841c0,0.16-0.481,0-0.481,0c-0.28-0.12-0.601-0.16-0.841-0.321
		c-0.321-0.16-0.641-0.4-1.122-0.361c-2.003,0.241-2.404,0.922-4.127,0.521c-1.723-0.401-2.163-0.761-4.006-0.641"/>
	<path fill="#010101" d="M320.564,49.11c-0.08-0.08,0.08-0.16,0-0.16c-0.521,0-1.242-0.401-1.643-0.962
		c-1.723-2.484-4.247-4.127-8.814-4.006c-6.851,0.16-9.576-2.644-10.096-8.013c-0.28-2.925-1.082-5.769-2.724-7.372l-0.962,0.601
		c1.843,1.603,2.444,4.207,2.845,7.773c0.641,5.369,4.968,7.853,10.016,7.933c5.249,0.08,7.132,1.162,9.095,3.806
		c0.641,0.841,1.362,1.122,1.923,1.242L320.564,49.11z"/>
	<path opacity="0.4" fill="#010101" enable-background="new    " d="M339.154,23.348c0.12,0.601,0.441,1.763,1.082,2.324
		c0.281,0.28,0.321,0.361,0.08,0.361c-0.241,0-2.003-0.08-2.003-0.08l-0.481-0.841L339.154,23.348z"/>
</g>
<g id="jQuery">
	<path fill="#0A69AD" d="M226.837,9.642c-3.773,5.423-3.303,12.477-0.421,18.239c0.069,0.138,0.14,0.274,0.211,0.41
		c0.045,0.086,0.088,0.175,0.135,0.26c0.027,0.051,0.056,0.101,0.084,0.149c0.049,0.092,0.099,0.179,0.15,0.269
		c0.09,0.158,0.181,0.315,0.275,0.472c0.052,0.086,0.103,0.172,0.157,0.259c0.104,0.168,0.211,0.334,0.319,0.499
		c0.045,0.071,0.09,0.141,0.136,0.21c0.15,0.224,0.304,0.448,0.462,0.667c0.004,0.006,0.008,0.012,0.013,0.018
		c0.025,0.035,0.053,0.07,0.078,0.105c0.137,0.189,0.278,0.376,0.422,0.56c0.053,0.067,0.106,0.135,0.159,0.202
		c0.128,0.16,0.257,0.319,0.39,0.478c0.049,0.06,0.099,0.119,0.149,0.178c0.177,0.209,0.358,0.417,0.543,0.62
		c0.003,0.003,0.008,0.008,0.011,0.011c0.008,0.009,0.014,0.014,0.021,0.023c0.18,0.197,0.365,0.389,0.551,0.581
		c0.058,0.06,0.117,0.119,0.177,0.178c0.145,0.146,0.292,0.29,0.44,0.432c0.06,0.057,0.12,0.116,0.18,0.171
		c0.198,0.187,0.399,0.37,0.603,0.549c0.003,0.003,0.006,0.006,0.009,0.008c0.035,0.031,0.071,0.06,0.105,0.09
		c0.18,0.156,0.364,0.311,0.548,0.463c0.075,0.061,0.151,0.12,0.227,0.181c0.151,0.12,0.303,0.24,0.457,0.357
		c0.081,0.062,0.162,0.124,0.244,0.186c0.17,0.125,0.34,0.248,0.513,0.368c0.063,0.045,0.124,0.09,0.187,0.133
		c0.018,0.012,0.034,0.024,0.051,0.036c0.164,0.113,0.331,0.221,0.498,0.329c0.072,0.048,0.143,0.097,0.215,0.144
		c0.256,0.162,0.517,0.323,0.78,0.477c0.071,0.041,0.144,0.081,0.215,0.122c0.193,0.112,0.388,0.221,0.585,0.328
		c0.107,0.057,0.216,0.112,0.324,0.167c0.139,0.073,0.277,0.147,0.419,0.218c0.032,0.016,0.065,0.031,0.097,0.046
		c0.057,0.028,0.114,0.054,0.171,0.083c0.219,0.105,0.44,0.208,0.664,0.307c0.048,0.021,0.093,0.042,0.14,0.063
		c0.256,0.112,0.514,0.219,0.774,0.322c0.062,0.025,0.125,0.05,0.188,0.074c0.241,0.093,0.485,0.185,0.73,0.271
		c0.031,0.011,0.061,0.021,0.092,0.032c0.269,0.094,0.541,0.181,0.814,0.266c0.065,0.019,0.131,0.04,0.197,0.059
		c0.278,0.084,0.554,0.185,0.841,0.238c18.246,3.327,23.546-10.965,23.546-10.965c-4.451,5.799-12.353,7.329-19.839,5.626
		c-0.283-0.064-0.559-0.152-0.835-0.234c-0.07-0.021-0.139-0.042-0.208-0.063c-0.27-0.083-0.538-0.17-0.804-0.262
		c-0.036-0.013-0.073-0.027-0.111-0.04c-0.239-0.084-0.475-0.172-0.709-0.263c-0.066-0.027-0.133-0.052-0.199-0.078
		c-0.257-0.102-0.513-0.208-0.766-0.318c-0.052-0.022-0.102-0.045-0.153-0.067c-0.217-0.098-0.432-0.198-0.646-0.301
		c-0.062-0.03-0.124-0.059-0.187-0.09c-0.168-0.082-0.334-0.169-0.5-0.254c-0.111-0.058-0.224-0.114-0.334-0.175
		c-0.202-0.108-0.401-0.221-0.599-0.336c-0.067-0.038-0.135-0.074-0.202-0.113c-0.263-0.155-0.523-0.315-0.78-0.478
		c-0.071-0.045-0.14-0.094-0.21-0.14c-0.186-0.12-0.372-0.243-0.555-0.369c-0.061-0.041-0.119-0.085-0.179-0.126
		c-0.177-0.125-0.351-0.251-0.525-0.379c-0.079-0.058-0.156-0.117-0.233-0.176c-0.159-0.122-0.317-0.244-0.473-0.37
		c-0.071-0.056-0.141-0.113-0.211-0.169c-0.199-0.164-0.396-0.328-0.59-0.497c-0.02-0.018-0.043-0.035-0.065-0.054
		c-0.21-0.185-0.416-0.374-0.62-0.564c-0.059-0.056-0.117-0.112-0.175-0.168c-0.151-0.144-0.299-0.288-0.445-0.437
		c-0.059-0.059-0.117-0.116-0.175-0.175c-0.186-0.19-0.368-0.382-0.546-0.578c-0.009-0.01-0.018-0.019-0.027-0.029
		c-0.189-0.207-0.374-0.418-0.554-0.631c-0.049-0.059-0.097-0.115-0.145-0.172c-0.135-0.162-0.269-0.327-0.399-0.493
		c-0.049-0.06-0.098-0.121-0.146-0.182c-0.157-0.204-0.311-0.407-0.461-0.613c-4.156-5.669-5.649-13.489-2.327-19.91"/>
	<path fill="#0A69AD" d="M238.549,5.073c-2.728,3.926-2.58,9.182-0.452,13.335c0.357,0.696,0.758,1.371,1.207,2.015
		c0.409,0.586,0.862,1.283,1.405,1.754c0.197,0.217,0.402,0.428,0.612,0.635c0.053,0.054,0.107,0.106,0.161,0.159
		c0.204,0.198,0.411,0.392,0.625,0.581c0.009,0.007,0.017,0.015,0.025,0.022c0.002,0.002,0.005,0.003,0.006,0.006
		c0.237,0.208,0.482,0.408,0.73,0.604c0.055,0.042,0.11,0.086,0.166,0.129c0.249,0.191,0.503,0.379,0.764,0.558
		c0.008,0.006,0.014,0.011,0.022,0.017c0.115,0.08,0.232,0.154,0.349,0.23c0.056,0.036,0.109,0.075,0.165,0.109
		c0.186,0.119,0.375,0.235,0.566,0.347c0.027,0.017,0.054,0.031,0.08,0.046c0.165,0.095,0.333,0.189,0.501,0.28
		c0.059,0.033,0.118,0.062,0.178,0.093c0.116,0.061,0.232,0.123,0.35,0.181c0.018,0.009,0.036,0.017,0.053,0.024
		c0.24,0.118,0.483,0.232,0.73,0.34c0.053,0.023,0.108,0.044,0.161,0.066c0.198,0.084,0.398,0.166,0.599,0.243
		c0.085,0.032,0.171,0.063,0.256,0.094c0.182,0.067,0.365,0.129,0.55,0.191c0.083,0.027,0.165,0.054,0.249,0.08
		c0.262,0.082,0.522,0.185,0.795,0.23c14.088,2.334,17.34-8.512,17.34-8.512c-2.932,4.222-8.609,6.237-14.668,4.664
		c-0.269-0.071-0.534-0.148-0.798-0.231c-0.081-0.024-0.16-0.051-0.24-0.077c-0.187-0.061-0.374-0.125-0.558-0.192
		c-0.085-0.031-0.169-0.062-0.252-0.094c-0.202-0.077-0.402-0.158-0.601-0.242c-0.054-0.023-0.109-0.044-0.162-0.069
		c-0.249-0.108-0.493-0.222-0.735-0.341c-0.124-0.061-0.246-0.125-0.369-0.188c-0.071-0.036-0.142-0.073-0.213-0.109
		c-0.157-0.085-0.313-0.173-0.466-0.263c-0.036-0.021-0.075-0.041-0.112-0.063c-0.191-0.112-0.378-0.227-0.565-0.345
		c-0.057-0.036-0.113-0.076-0.17-0.114c-0.123-0.08-0.245-0.16-0.366-0.242c-0.26-0.179-0.512-0.367-0.761-0.557
		c-0.057-0.045-0.115-0.09-0.171-0.135c-2.652-2.094-4.754-4.955-5.754-8.2c-1.047-3.365-0.822-7.142,0.993-10.207"/>
	<path fill="#0A69AD" d="M248.399,1.66c-1.608,2.367-1.766,5.307-0.65,7.921c1.177,2.775,3.589,4.952,6.404,5.984
		c0.116,0.043,0.232,0.082,0.35,0.122c0.051,0.015,0.102,0.033,0.154,0.049c0.166,0.052,0.33,0.113,0.502,0.145
		c7.779,1.503,9.888-3.992,10.45-4.8c-1.848,2.661-4.954,3.3-8.765,2.375c-0.301-0.073-0.632-0.182-0.922-0.285
		c-0.372-0.133-0.739-0.284-1.095-0.455c-0.677-0.325-1.322-0.72-1.92-1.171c-3.41-2.587-5.529-7.523-3.303-11.543"/>
	<path fill="#131B28" d="M230.001,57.983L230.001,57.983l-0.559,1.981L230.001,57.983L230.001,57.983z"/>
	<path fill="#131B28" d="M232.877,62.286l-0.616-0.004L232.877,62.286z"/>
	<path fill="#131B28" d="M233.492,62.29l-0.616-0.004L233.492,62.29z"/>
	<path fill="#131B28" d="M233.042,64.994l0.643-2.453L233.042,64.994L233.042,64.994L233.042,64.994z"/>
	<path fill="#131B28" d="M246.636,53.699l-1.198,5.632L246.636,53.699z"/>
	<path fill="#131B28" d="M243.556,53.699l-0.91,4.208L243.556,53.699L243.556,53.699z"/>
	<path fill="#131B28" d="M246.43,53.445h-2.562c-0.142,0-0.283,0.114-0.314,0.253l-0.91,4.208l-0.91,4.208
		c-0.03,0.139-0.171,0.253-0.313,0.253h-1.554h-0.259c-1.794,0-1.586-1.241-1.219-2.941c0.004-0.017,0.007-0.034,0.011-0.051
		l0.04-0.214c0.002-0.014,0.005-0.028,0.008-0.04l0.082-0.436l0.088-0.468c0.027-0.141,0.067-0.347,0.094-0.477l0.413-2.02
		l0.414-2.02c0.029-0.139-0.065-0.254-0.207-0.254h-2.63c-0.142,0-0.283,0.114-0.312,0.253l-0.565,2.683l-0.565,2.682
		c-0.001,0.001-0.001,0.003-0.001,0.004l-0.053,0.249c-0.651,2.973-0.479,5.809,3.061,5.897c0.058,0.002,0.103,0.002,0.103,0.002
		h5.556c0.142,0,0.283-0.114,0.313-0.253l1.198-5.632l1.198-5.632C246.665,53.56,246.573,53.446,246.43,53.445L246.43,53.445z"/>
	<path fill="#131B28" d="M256.651,62.396c0.142,0,0.235,0.114,0.207,0.253l-0.249,1.216"/>
	<path fill="#131B28" d="M256.36,65.082l0.249-1.217L256.36,65.082L256.36,65.082L256.36,65.082z"/>
	<path fill="#131B28" d="M249.799,60.83c-0.002-0.133,0.149-0.363,0.292-0.363l-0.32-0.005
		C249.626,61.912,249.799,60.83,249.799,60.83L249.799,60.83z"/>
	<path fill="#131B28" d="M256.651,62.396c0.142,0,0.235,0.114,0.207,0.253l-0.249,1.216l-0.041,0.198"/>
	<path fill="#131B28" d="M220.383,55.586l0.318-1.411l-0.364,1.613l-0.349,1.643l0.306-1.441
		C220.317,55.879,220.357,55.697,220.383,55.586L220.383,55.586z"/>
	<path fill="#131B28" d="M218.991,53.416h-2.813c-0.142,0-0.284,0.114-0.316,0.252l-0.267,1.178l-0.267,1.178
		c-0.031,0.138,0.059,0.252,0.202,0.252h2.835c0.142,0,0.283-0.114,0.314-0.253l0.258-1.178l0.258-1.177v0
		C219.225,53.529,219.134,53.416,218.991,53.416L218.991,53.416z"/>
	<path fill="#131B28" d="M218.379,57.333L218.379,57.333l-0.825,3.817L218.379,57.333z"/>
	<path fill="#131B28" d="M221.019,52.764l-0.319,1.411L221.019,52.764z"/>
	<path fill="#131B28" d="M218.175,57.08h-2.836c-0.142,0-0.284,0.114-0.316,0.253l-0.398,1.764l-0.398,1.764
		c-0.031,0.139-0.081,0.367-0.111,0.506l-0.383,1.801l-0.382,1.801c-0.03,0.139-0.091,0.363-0.136,0.498c0,0-0.53,1.576-1.42,1.558
		c-0.038-0.001-0.075-0.001-0.111-0.002c-0.432-0.008-0.771-0.014-0.771-0.014h-0.001c-0.142-0.002-0.285,0.109-0.318,0.247
		l-0.294,1.236l-0.294,1.236c-0.033,0.138,0.056,0.252,0.198,0.255c0.505,0.006,1.636,0.019,2.321,0.019
		c2.225,0,3.397-1.233,4.149-4.779l0.88-4.071l0.825-3.818C218.409,57.194,218.317,57.08,218.175,57.08L218.175,57.08z"/>
	<path fill="#131B28" d="M258.457,65.216c-0.142,0-0.234-0.114-0.204-0.253l2.133-9.992"/>
	<path fill="#131B28" d="M261.422,64.962l0.863-4.265L261.422,64.962z"/>
	<path fill="#131B28" d="M258.284,65.09c-0.017-0.07-0.007-0.24,0.023-0.38l1.012-4.743l-1.067,4.996
		c-0.03,0.139,0.062,0.253,0.204,0.253h0.259C258.574,65.216,258.301,65.159,258.284,65.09L258.284,65.09z"/>
	<path fill="#131B28" d="M261.854,62.83l0.381-1.882c0,0.001,0,0.003-0.001,0.004L261.854,62.83L261.854,62.83z"/>
	<path fill="#131B28" d="M270.271,55.64l0.117,0.486c0.032,0.139-0.057,0.252-0.199,0.252"/>
	<path fill="#131B28" d="M261.474,64.709l0.38-1.879L261.474,64.709z"/>
	<path fill="#131B28" d="M270.154,55.143l0.116,0.497L270.154,55.143z"/>
	<path fill="#131B28" d="M262.235,60.948c0.028-0.139,0.075-0.365,0.105-0.503l0.407-1.905l-0.461,2.158L262.235,60.948
		L262.235,60.948z"/>
	<path fill="#131B28" d="M260.421,54.807c-0.028,0.134-0.065,0.304-0.089,0.417l-1.012,4.743l1.067-4.996L260.421,54.807
		L260.421,54.807z"/>
	<path fill="#131B28" d="M270.388,56.126l-0.118-0.486l-0.116-0.497l-0.059-0.252c-0.23-0.895-0.906-1.411-2.375-1.411l-2.286-0.002
		l-2.105-0.002h-0.181h-2.188c-0.142,0-0.283,0.114-0.312,0.253h0l-0.105,0.495l-0.124,0.584l-0.034,0.164l-1.067,4.996
		l-1.012,4.743c-0.03,0.139-0.04,0.31-0.023,0.38c0.017,0.07,0.29,0.127,0.432,0.127h2.137c0.142,0,0.322-0.026,0.4-0.057
		c0.078-0.031,0.192-0.311,0.221-0.45l0.38-1.879l0.38-1.879c0-0.001,0-0.002,0.001-0.004l0.051-0.25l0.461-2.158l0.407-1.906
		c0.03-0.138,0.17-0.252,0.312-0.252l6.723-0.003C270.33,56.378,270.42,56.265,270.388,56.126L270.388,56.126z"/>
	<path fill="#131B28" d="M279.043,51.736c-0.142,0.001-0.375,0.002-0.517,0.002h-2.152c-0.142,0-0.325,0.096-0.405,0.214
		l-4.759,6.971c-0.08,0.118-0.172,0.1-0.204-0.038l-0.35-1.536c-0.032-0.139-0.174-0.252-0.316-0.252h-3.059
		c-0.142,0-0.227,0.112-0.188,0.248l1.371,4.802c0.039,0.137,0.042,0.362,0.007,0.499l-0.598,2.324
		c-0.035,0.138,0.052,0.251,0.194,0.251h3.024c0.142,0,0.288-0.113,0.323-0.251l0.598-2.324c0.035-0.138,0.134-0.344,0.22-0.457
		l7.725-10.253c0.086-0.114,0.039-0.206-0.103-0.205L279.043,51.736L279.043,51.736z"/>
	<path fill="#131B28" d="M254.739,57.75l0-0.003c-0.018,0.154-0.16,0.268-0.302,0.268h-3.879c-0.134,0-0.202-0.091-0.182-0.204
		c0.001-0.003,0.002-0.006,0.004-0.009c0,0-0.001,0-0.002,0.001c0.001-0.004,0.001-0.009,0.002-0.013c0,0,0.007-0.027,0.018-0.066
		c0.37-0.985,1.125-1.631,2.543-1.631C254.536,56.093,254.847,56.873,254.739,57.75L254.739,57.75z M253.601,53.273
		c-4.978,0-6.158,3.022-6.82,6.072c-0.662,3.109-0.605,6.015,4.547,6.015h0.183c0.016,0,0.033,0,0.049,0h0.144h0.053h0.135
		c0.02,0,0.04,0,0.06,0c0.051,0,0.103,0,0.155,0h0.036c0.204,0,0.411-0.001,0.618-0.002h0.01c1.361-0.005,2.725-0.015,3.278-0.02
		c0.141-0.002,0.28-0.116,0.309-0.254l0.209-1.019l0.041-0.198l0.249-1.216c0.029-0.139-0.065-0.253-0.207-0.253h-4.631
		c-1.842,0-2.389-0.49-2.188-1.929h7.404l-0.001,0.001c0.002,0,0.003-0.001,0.005-0.001c0.118-0.002,0.226-0.083,0.27-0.191
		c0.008-0.021,0.015-0.042,0.018-0.065l-0.001,0.001C258.625,56.066,258.31,53.274,253.601,53.273L253.601,53.273z"/>
	<path fill="#131B28" d="M230.071,57.734l-0.07,0.248c0,0.001,0,0.001,0,0.001l-0.559,1.981l-0.559,1.981
		c-0.039,0.137-0.187,0.249-0.329,0.249h-2.959c-2.244,0-2.791-1.755-2.244-4.345c0.546-2.648,1.618-4.295,3.827-4.461
		C230.196,53.16,230.8,55.284,230.071,57.734L230.071,57.734z M232.1,62.042c0,0,1.395-3.387,1.712-5.344
		c0.432-2.619-0.879-6.417-5.944-6.417c-5.036,0-7.223,3.626-8.058,7.569c-0.834,3.971,0.259,7.453,5.266,7.425l3.95-0.015
		l3.692-0.013c0.142-0.001,0.288-0.114,0.324-0.251l0.643-2.453c0.036-0.138-0.051-0.251-0.193-0.252l-0.616-0.004l-0.616-0.004
		c-0.121-0.001-0.19-0.079-0.176-0.183C232.087,62.081,232.091,62.061,232.1,62.042L232.1,62.042z"/>
	<path fill="#131B28" d="M257.031,59.775c0,0.094-0.076,0.17-0.17,0.17c-0.094,0-0.17-0.076-0.17-0.17
		c0-0.094,0.076-0.169,0.17-0.169C256.955,59.605,257.031,59.681,257.031,59.775z"/>
</g>
<g id="JS">
	<rect x="140" fill="#F6DF1B" width="70" height="70"/>
	<path fill="#010101" d="M187.022,54.688c1.41,2.302,3.244,3.994,6.489,3.994c2.726,0,4.467-1.362,4.467-3.244
		c0-2.256-1.789-3.054-4.789-4.367l-1.644-0.706c-4.747-2.022-7.9-4.556-7.9-9.911c0-4.933,3.759-8.689,9.633-8.689
		c4.182,0,7.189,1.456,9.356,5.267l-5.122,3.289c-1.128-2.022-2.344-2.819-4.233-2.819c-1.927,0-3.148,1.222-3.148,2.819
		c0,1.973,1.222,2.772,4.044,3.994l1.644,0.704c5.589,2.397,8.744,4.84,8.744,10.333c0,5.922-4.652,9.167-10.9,9.167
		c-6.109,0-10.056-2.911-11.987-6.727L187.022,54.688z M163.786,55.258c1.033,1.833,1.973,3.383,4.233,3.383
		c2.161,0,3.524-0.846,3.524-4.133V32.141h6.578v22.456c0,6.811-3.993,9.911-9.822,9.911c-5.267,0-8.317-2.726-9.868-6.008
		L163.786,55.258z"/>
</g>
<g id="CSS3">
	<path id="Shape_1_" fill="#1673B6" d="M79.949,63.003L74.375,0h61.25l-5.58,62.993L104.963,70L79.949,63.003z"/>
	<path id="Shape_2_" fill="#35A9DB" d="M105,64.644l20.268-5.662l4.768-53.83H105V64.644z"/>
	<g id="Group" transform="translate(55.000000, 142.000000)">
		<path id="Shape_3_" fill="#FFFFFF" d="M50-114.023h10.147l0.701-7.913H50v-7.727h0.027h19.201l-0.184,2.073l-1.885,21.293H50
			V-114.023z"/>
		<path id="Shape_4_" fill="#EBEBEB" d="M50.046-93.955l-0.034,0.01l-8.54-2.324l-0.546-6.162h-4.149H33.23L34.304-90.3
			l15.707,4.394l0.035-0.01V-93.955z"/>
		<path id="Shape_5_" fill="#FFFFFF" d="M59.495-106.623l-0.923,10.348l-8.552,2.326v8.039l15.719-4.39l0.115-1.305l1.334-15.018
			H59.495z"/>
		<path id="Shape_6_" fill="#EBEBEB" d="M50.027-129.663v4.799v2.909v0.019H31.53h-0.025l-0.154-1.737l-0.349-3.917l-0.183-2.073
			H50.027z"/>
		<path id="Shape_7_" fill="#EBEBEB" d="M50-114.022v4.799v2.909v0.019h-8.407h-0.025l-0.154-1.737l-0.35-3.917l-0.183-2.073H50z"/>
	</g>
</g>
<g id="HTML5_1_">
	<polygon fill="#E44F26" points="9.949,63.003 4.375,0 65.625,0 60.045,62.993 34.963,70 	"/>
	<polygon fill="#F1662A" points="35,64.644 55.268,58.982 60.036,5.151 35,5.151 	"/>
	<polygon fill="#EBEBEB" points="35,28.518 24.853,28.518 24.153,20.606 35,20.606 35,12.878 34.973,12.878 15.773,12.878 
		15.956,14.952 17.841,36.245 35,36.245 	"/>
	<polygon fill="#EBEBEB" points="35,48.493 34.966,48.502 26.427,46.168 25.881,39.979 21.731,39.979 18.183,39.979 19.258,52.164 
		34.965,56.577 35,56.567 	"/>
	<polygon fill="#FFFFFF" points="34.973,28.518 34.973,36.245 44.416,36.245 43.526,46.266 34.973,48.592 34.973,56.631 
		50.693,52.241 50.808,50.936 52.61,30.593 52.797,28.518 50.731,28.518 	"/>
	<polygon fill="#FFFFFF" points="34.973,12.878 34.973,17.678 34.973,20.587 34.973,20.606 53.47,20.606 53.47,20.606 
		53.495,20.606 53.649,18.869 53.998,14.952 54.182,12.878 	"/>
</g>
<g id="Guides">
</g>
<g id="Layer_10">
</g>
</svg>
